<?xml version="1.0" encoding="UTF-8" standalone="no"?>
<!-- Created with Inkscape (http://www.inkscape.org/) -->

<svg
   xmlns:dc="http://purl.org/dc/elements/1.1/"
   xmlns:cc="http://creativecommons.org/ns#"
   xmlns:rdf="http://www.w3.org/1999/02/22-rdf-syntax-ns#"
   xmlns:svg="http://www.w3.org/2000/svg"
   xmlns="http://www.w3.org/2000/svg"
   xmlns:xlink="http://www.w3.org/1999/xlink"
   xmlns:sodipodi="http://sodipodi.sourceforge.net/DTD/sodipodi-0.dtd"
   xmlns:inkscape="http://www.inkscape.org/namespaces/inkscape"
   width="210mm"
   height="297mm"
   viewBox="0 0 744.09448819 1052.3622047"
   id="svg2"
   version="1.1"
   inkscape:version="0.91 r13725"
   inkscape:export-filename="/Users/gtorok/github/arkona/assets/images/back.png"
   inkscape:export-xdpi="179.87827"
   inkscape:export-ydpi="179.87827"
   sodipodi:docname="back.svg">
  <defs
     id="defs4">
    <linearGradient
       inkscape:collect="always"
       id="linearGradient4647">
      <stop
         style="stop-color:#0d1269;stop-opacity:1;"
         offset="0"
         id="stop4649" />
      <stop
         style="stop-color:#0d1269;stop-opacity:0;"
         offset="1"
         id="stop4651" />
    </linearGradient>
    <linearGradient
       inkscape:collect="always"
       id="linearGradient4618">
      <stop
         style="stop-color:#091935;stop-opacity:1;"
         offset="0"
         id="stop4620" />
      <stop
         style="stop-color:#3572dd;stop-opacity:0"
         offset="1"
         id="stop4622" />
    </linearGradient>
    <filter
       style="color-interpolation-filters:sRGB;"
       inkscape:label="Ripple"
       id="filter4434"
       inkscape:menu="Distort"
       inkscape:menu-tooltip="Horizontal rippling of edges">
      <feTurbulence
         type="fractalNoise"
         numOctaves="1"
         seed="205"
         baseFrequency="0.2669 7.60662"
         result="turbulence"
         id="feTurbulence4436" />
      <feDisplacementMap
         in="SourceGraphic"
         in2="turbulence"
         scale="34.7"
         yChannelSelector="G"
         xChannelSelector="R"
         id="feDisplacementMap4438"
         result="fbSourceGraphic" />
      <feColorMatrix
         result="fbSourceGraphicAlpha"
         in="fbSourceGraphic"
         values="0 0 0 -1 0 0 0 0 -1 0 0 0 0 -1 0 0 0 0 1 0"
         id="feColorMatrix4508" />
      <feTurbulence
         id="feTurbulence4510"
         numOctaves="1"
         baseFrequency="0.002 0.107"
         in="fbSourceGraphic" />
      <feColorMatrix
         id="feColorMatrix4512"
         values="2 0 0 0 0 0 0 0 0 0 0 0 0 0 0 0 0 0 0.5 0.5"
         result="result91" />
      <feDisplacementMap
         id="feDisplacementMap4514"
         in2="result91"
         yChannelSelector="A"
         xChannelSelector="R"
         scale="14.3"
         in="fbSourceGraphic" />
    </filter>
    <filter
       style="color-interpolation-filters:sRGB;"
       inkscape:label="Roughen"
       id="filter4612">
      <feTurbulence
         type="fractalNoise"
         numOctaves="5"
         seed="297"
         baseFrequency="0.3201 0.2935"
         result="turbulence"
         id="feTurbulence4614" />
      <feDisplacementMap
         in="SourceGraphic"
         in2="turbulence"
         scale="1.8617"
         yChannelSelector="G"
         xChannelSelector="R"
         id="feDisplacementMap4616" />
    </filter>
    <radialGradient
       inkscape:collect="always"
       xlink:href="#linearGradient4647"
       id="radialGradient4655"
       cx="316.83334"
       cy="580.16125"
       fx="316.83334"
       fy="580.16125"
       r="236.12318"
       gradientTransform="matrix(0.95927511,-0.25390733,0.20332512,0.76817288,-99.90558,190.65447)"
       gradientUnits="userSpaceOnUse" />
    <radialGradient
       inkscape:collect="always"
       xlink:href="#linearGradient4618"
       id="radialGradient4657"
       cx="254.90205"
       cy="712.51923"
       fx="254.90205"
       fy="712.51923"
       r="232.75385"
       gradientTransform="matrix(-0.00729285,0.39766302,-0.87699188,-0.01608357,980.4356,471.43558)"
       gradientUnits="userSpaceOnUse" />
  </defs>
  <sodipodi:namedview
     id="base"
     pagecolor="#ffffff"
     bordercolor="#666666"
     borderopacity="1.0"
     inkscape:pageopacity="0.0"
     inkscape:pageshadow="2"
     inkscape:zoom="1.979899"
     inkscape:cx="360.23217"
     inkscape:cy="481.10913"
     inkscape:document-units="px"
     inkscape:current-layer="layer1"
     showgrid="false"
     inkscape:window-width="1916"
     inkscape:window-height="1155"
     inkscape:window-x="4"
     inkscape:window-y="1"
     inkscape:window-maximized="1" />
  <metadata
     id="metadata7">
    <rdf:RDF>
      <cc:Work
         rdf:about="">
        <dc:format>image/svg+xml</dc:format>
        <dc:type
           rdf:resource="http://purl.org/dc/dcmitype/StillImage" />
        <dc:title></dc:title>
      </cc:Work>
    </rdf:RDF>
  </metadata>
  <g
     inkscape:label="Layer 1"
     inkscape:groupmode="layer"
     id="layer1">
    <ellipse
       style="fill:#000000;fill-opacity:1;stroke:none;stroke-width:1;stroke-linecap:round;stroke-linejoin:round;stroke-miterlimit:4;stroke-dasharray:none;stroke-opacity:1"
       id="ellipse4645"
       cx="348.75516"
       cy="524.55756"
       rx="236.12318"
       ry="136.09181" />
    <ellipse
       ry="136.09181"
       rx="236.12318"
       cy="524.55756"
       cx="348.75516"
       id="ellipse4453"
       style="fill:url(#radialGradient4655);fill-opacity:1;stroke:none;stroke-width:1;stroke-linecap:round;stroke-linejoin:round;stroke-miterlimit:4;stroke-dasharray:none;stroke-opacity:1" />
    <path
       inkscape:connector-curvature="0"
       id="path4659"
       d="M 115.89846,546.88467 A 236.12319,136.09182 0 0 0 348.75574,660.64981 236.12319,136.09182 0 0 0 581.40613,546.88467 l -465.50767,0 z"
       style="fill:#000000;fill-opacity:1;stroke:none;stroke-width:1;stroke-linecap:round;stroke-linejoin:round;stroke-miterlimit:4;stroke-dasharray:none;stroke-opacity:1" />
    <g
       id="g4486"
       style="fill:#ffed69;fill-opacity:1;filter:url(#filter4612)">
      <ellipse
         ry="36.112953"
         rx="37.880722"
         cy="530.36591"
         cx="284.86301"
         id="path4142"
         style="fill:#ffed69;fill-opacity:1;stroke:none;stroke-width:1;stroke-linecap:round;stroke-linejoin:round;stroke-miterlimit:4;stroke-dasharray:none;stroke-opacity:1" />
      <path
         inkscape:connector-curvature="0"
         id="path4168"
         d="m 190.68257,451.1596 c -0.18433,0.0123 -0.30716,0.0775 -0.30716,0.0775 0,0 -0.65537,1.17988 -0.65537,4.71887 0,0.0113 4.9e-4,0.0246 5.1e-4,0.036 -0.2026,-0.006 -0.40556,-0.0107 -0.60823,-0.0107 -3.85357,0 -3.11973,1.37664 -3.11973,1.37664 0,0 0.82592,0.4587 3.30321,0.4587 0.15435,0 0.31903,-0.003 0.49216,-0.009 0.22981,3.76216 0.98077,9.02668 0.98077,9.02668 0,0 1.22331,-4.38841 1.51146,-9.20255 2.28633,-0.21737 4.63118,-0.54945 4.63118,-0.54945 0,0 -2.0201,-0.56161 -4.57846,-0.88244 0.003,-0.1689 0.009,-0.33753 0.009,-0.50635 0,-4.12881 -1.10598,-4.57123 -1.65895,-4.53437 z"
         style="fill:#ffed69;fill-opacity:1;stroke:none;stroke-width:1;stroke-linecap:round;stroke-linejoin:round;stroke-miterlimit:4;stroke-dasharray:none;stroke-opacity:1" />
      <path
         style="fill:#ffed69;fill-opacity:1;stroke:none;stroke-width:1;stroke-linecap:round;stroke-linejoin:round;stroke-miterlimit:4;stroke-dasharray:none;stroke-opacity:1"
         d="m 238.33037,431.96781 c -0.26747,0.0179 -0.4457,0.11245 -0.4457,0.11245 0,0 -0.95097,1.71206 -0.95097,6.84729 0,0.0164 7.1e-4,0.0357 7.4e-4,0.0522 -0.29398,-0.009 -0.58849,-0.0155 -0.88257,-0.0155 -5.5917,0 -4.52686,1.99756 -4.52686,1.99756 0,0 1.19844,0.6656 4.7931,0.6656 0.22397,0 0.46293,-0.004 0.71414,-0.0131 0.33347,5.45906 1.42314,13.0981 1.42314,13.0981 0,0 1.77508,-6.36777 2.1932,-13.3533 3.31756,-0.31541 6.72004,-0.79727 6.72004,-0.79727 0,0 -2.93125,-0.81492 -6.64354,-1.28046 0.004,-0.24508 0.0131,-0.48977 0.0131,-0.73474 0,-5.99108 -1.60483,-6.63305 -2.40721,-6.57956 z"
         id="path4173"
         inkscape:connector-curvature="0" />
      <path
         inkscape:connector-curvature="0"
         id="path4175"
         d="m 230.24809,490.61403 c -0.16843,0.0112 -0.28065,0.0708 -0.28065,0.0708 0,0 -0.59881,1.07805 -0.59881,4.3116 0,0.0103 4.5e-4,0.0225 4.6e-4,0.0329 -0.18511,-0.005 -0.37055,-0.01 -0.55573,-0.01 -3.52098,0 -2.85048,1.25783 -2.85048,1.25783 0,0 0.75464,0.41911 3.01812,0.41911 0.14103,0 0.2915,-0.003 0.44969,-0.008 0.20997,3.43747 0.89612,8.24762 0.89612,8.24762 0,0 1.11773,-4.00966 1.38101,-8.40831 2.08901,-0.19861 4.23148,-0.50203 4.23148,-0.50203 0,0 -1.84575,-0.51313 -4.18331,-0.80627 0.003,-0.15433 0.008,-0.3084 0.008,-0.46265 0,-3.77247 -1.01052,-4.17671 -1.51577,-4.14303 z"
         style="fill:#ffed69;fill-opacity:1;stroke:none;stroke-width:1;stroke-linecap:round;stroke-linejoin:round;stroke-miterlimit:4;stroke-dasharray:none;stroke-opacity:1" />
      <path
         style="fill:#ffed69;fill-opacity:1;stroke:none;stroke-width:1;stroke-linecap:round;stroke-linejoin:round;stroke-miterlimit:4;stroke-dasharray:none;stroke-opacity:1"
         d="m 173.30523,491.42219 c -0.23523,0.0157 -0.39198,0.0989 -0.39198,0.0989 0,0 -0.83634,1.50569 -0.83634,6.02191 0,0.0144 6.3e-4,0.0314 6.5e-4,0.0459 -0.25854,-0.008 -0.51755,-0.0136 -0.77618,-0.0136 -4.91767,0 -3.98119,1.75677 -3.98119,1.75677 0,0 1.05398,0.58537 4.21533,0.58537 0.19698,0 0.40713,-0.004 0.62807,-0.0115 0.29326,4.80102 1.25159,11.51925 1.25159,11.51925 0,0 1.56111,-5.6002 1.92882,-11.74368 2.91767,-0.2774 5.91001,-0.70117 5.91001,-0.70117 0,0 -2.57792,-0.71669 -5.84273,-1.12611 0.004,-0.21554 0.0115,-0.43074 0.0115,-0.64618 0,-5.26891 -1.41138,-5.8335 -2.11704,-5.78646 z"
         id="path4177"
         inkscape:connector-curvature="0" />
      <path
         inkscape:connector-curvature="0"
         id="path4179"
         d="m 344.1575,408.73508 c -0.32686,0.0218 -0.54466,0.13743 -0.54466,0.13743 0,0 -1.16211,2.09218 -1.16211,8.36758 0,0.02 8.7e-4,0.0436 9e-4,0.0638 -0.35925,-0.0106 -0.71914,-0.019 -1.07852,-0.019 -6.83322,0 -5.53196,2.44108 -5.53196,2.44108 0,0 1.46453,0.81338 5.85731,0.81338 0.27369,0 0.56571,-0.005 0.8727,-0.016 0.40751,6.67113 1.73912,16.00627 1.73912,16.00627 0,0 2.1692,-7.78161 2.68015,-16.31813 4.05416,-0.38544 8.21209,-0.97429 8.21209,-0.97429 0,0 -3.58208,-0.99586 -8.11861,-1.56476 0.005,-0.29949 0.016,-0.59851 0.016,-0.89787 0,-7.32127 -1.96114,-8.10578 -2.94168,-8.04042 z"
         style="fill:#ffed69;fill-opacity:1;stroke:none;stroke-width:1;stroke-linecap:round;stroke-linejoin:round;stroke-miterlimit:4;stroke-dasharray:none;stroke-opacity:1" />
      <path
         style="fill:#ffed69;fill-opacity:1;stroke:none;stroke-width:1;stroke-linecap:round;stroke-linejoin:round;stroke-miterlimit:4;stroke-dasharray:none;stroke-opacity:1"
         d="m 373.52019,452.67483 c -0.18433,0.0123 -0.30716,0.0775 -0.30716,0.0775 0,0 -0.65537,1.17988 -0.65537,4.71887 0,0.0113 4.9e-4,0.0246 5.1e-4,0.036 -0.2026,-0.006 -0.40556,-0.0107 -0.60823,-0.0107 -3.85357,0 -3.11973,1.37664 -3.11973,1.37664 0,0 0.82592,0.4587 3.30321,0.4587 0.15435,0 0.31903,-0.003 0.49216,-0.009 0.22981,3.76216 0.98077,9.02668 0.98077,9.02668 0,0 1.22331,-4.38841 1.51146,-9.20255 2.28633,-0.21737 4.63118,-0.54945 4.63118,-0.54945 0,0 -2.0201,-0.56161 -4.57846,-0.88244 0.003,-0.1689 0.009,-0.33753 0.009,-0.50635 0,-4.12881 -1.10598,-4.57123 -1.65895,-4.53437 z"
         id="path4181"
         inkscape:connector-curvature="0" />
      <path
         inkscape:connector-curvature="0"
         id="path4183"
         d="m 323.46803,469.84722 c -0.16842,0.0112 -0.28065,0.0708 -0.28065,0.0708 0,0 -0.5988,1.07805 -0.5988,4.3116 0,0.0103 4.4e-4,0.0225 4.6e-4,0.0329 -0.18511,-0.005 -0.37055,-0.01 -0.55573,-0.01 -3.52098,0 -2.85048,1.25783 -2.85048,1.25783 0,0 0.75464,0.41911 3.01812,0.41911 0.14103,0 0.2915,-0.003 0.44968,-0.008 0.20998,3.43746 0.89613,8.24762 0.89613,8.24762 0,0 1.11773,-4.00966 1.38101,-8.40831 2.089,-0.19861 4.23148,-0.50203 4.23148,-0.50203 0,0 -1.84575,-0.51314 -4.18331,-0.80628 0.003,-0.15432 0.008,-0.3084 0.008,-0.46265 0,-3.77247 -1.01052,-4.1767 -1.51577,-4.14302 z"
         style="fill:#ffed69;fill-opacity:1;stroke:none;stroke-width:1;stroke-linecap:round;stroke-linejoin:round;stroke-miterlimit:4;stroke-dasharray:none;stroke-opacity:1" />
      <path
         style="fill:#ffed69;fill-opacity:1;stroke:none;stroke-width:1;stroke-linecap:round;stroke-linejoin:round;stroke-miterlimit:4;stroke-dasharray:none;stroke-opacity:1"
         d="m 397.76386,505.70784 c -0.18433,0.0123 -0.30716,0.0775 -0.30716,0.0775 0,0 -0.65537,1.17988 -0.65537,4.71887 0,0.0113 4.9e-4,0.0246 5.1e-4,0.036 -0.2026,-0.006 -0.40556,-0.0107 -0.60823,-0.0107 -3.85357,0 -3.11973,1.37664 -3.11973,1.37664 0,0 0.82592,0.4587 3.30321,0.4587 0.15435,0 0.31903,-0.003 0.49216,-0.009 0.22981,3.76216 0.98077,9.02668 0.98077,9.02668 0,0 1.22331,-4.38841 1.51146,-9.20255 2.28633,-0.21737 4.63118,-0.54945 4.63118,-0.54945 0,0 -2.0201,-0.56161 -4.57846,-0.88244 0.003,-0.1689 0.009,-0.33753 0.009,-0.50635 0,-4.12881 -1.10598,-4.57123 -1.65895,-4.53437 z"
         id="path4185"
         inkscape:connector-curvature="0" />
      <path
         inkscape:connector-curvature="0"
         id="path4187"
         d="m 423.61025,476.308 c -0.16842,0.0112 -0.28065,0.0708 -0.28065,0.0708 0,0 -0.59881,1.07805 -0.59881,4.3116 0,0.0103 4.5e-4,0.0225 4.7e-4,0.0329 -0.18511,-0.005 -0.37056,-0.01 -0.55574,-0.01 -3.52098,0 -2.85047,1.25782 -2.85047,1.25782 0,0 0.75464,0.41911 3.01812,0.41911 0.14103,0 0.29149,-0.003 0.44968,-0.008 0.20998,3.43746 0.89613,8.24762 0.89613,8.24762 0,0 1.11773,-4.00966 1.38101,-8.40831 2.089,-0.19861 4.23147,-0.50203 4.23147,-0.50203 0,0 -1.84575,-0.51314 -4.1833,-0.80628 0.003,-0.15432 0.008,-0.3084 0.008,-0.46265 0,-3.77246 -1.01053,-4.1767 -1.51577,-4.14302 z"
         style="fill:#ffed69;fill-opacity:1;stroke:none;stroke-width:1;stroke-linecap:round;stroke-linejoin:round;stroke-miterlimit:4;stroke-dasharray:none;stroke-opacity:1" />
      <path
         style="fill:#ffed69;fill-opacity:1;stroke:none;stroke-width:1;stroke-linecap:round;stroke-linejoin:round;stroke-miterlimit:4;stroke-dasharray:none;stroke-opacity:1"
         d="m 413.92631,435.50223 c -0.18433,0.0123 -0.30716,0.0775 -0.30716,0.0775 0,0 -0.65537,1.17988 -0.65537,4.71887 0,0.0113 4.9e-4,0.0246 5.1e-4,0.036 -0.2026,-0.006 -0.40556,-0.0107 -0.60823,-0.0107 -3.85357,0 -3.11973,1.37664 -3.11973,1.37664 0,0 0.82592,0.4587 3.30321,0.4587 0.15435,0 0.31903,-0.003 0.49216,-0.009 0.22981,3.76216 0.98077,9.02668 0.98077,9.02668 0,0 1.22331,-4.38841 1.51146,-9.20255 2.28633,-0.21737 4.63118,-0.54945 4.63118,-0.54945 0,0 -2.0201,-0.56161 -4.57846,-0.88244 0.003,-0.1689 0.009,-0.33753 0.009,-0.50635 0,-4.12881 -1.10598,-4.57123 -1.65895,-4.53437 z"
         id="path4189"
         inkscape:connector-curvature="0" />
      <path
         inkscape:connector-curvature="0"
         id="path4191"
         d="m 489.14111,519.68757 c -0.16842,0.0112 -0.28065,0.0708 -0.28065,0.0708 0,0 -0.59881,1.07805 -0.59881,4.3116 0,0.0103 4.5e-4,0.0225 4.7e-4,0.0329 -0.18512,-0.005 -0.37056,-0.01 -0.55574,-0.01 -3.52098,0 -2.85048,1.25783 -2.85048,1.25783 0,0 0.75464,0.41911 3.01812,0.41911 0.14103,0 0.2915,-0.003 0.44969,-0.008 0.20997,3.43747 0.89612,8.24762 0.89612,8.24762 0,0 1.11773,-4.00966 1.38101,-8.40831 2.08901,-0.19861 4.23148,-0.50203 4.23148,-0.50203 0,0 -1.84575,-0.51313 -4.18331,-0.80627 0.003,-0.15433 0.008,-0.3084 0.008,-0.46265 0,-3.77247 -1.01052,-4.17671 -1.51577,-4.14303 z"
         style="fill:#ffed69;fill-opacity:1;stroke:none;stroke-width:1;stroke-linecap:round;stroke-linejoin:round;stroke-miterlimit:4;stroke-dasharray:none;stroke-opacity:1" />
    </g>
    <path
       style="fill:url(#radialGradient4657);fill-opacity:1;stroke:none;stroke-width:1;stroke-linecap:round;stroke-linejoin:round;stroke-miterlimit:4;stroke-dasharray:none;stroke-opacity:1"
       d="M 115.89846,546.88467 A 236.12319,136.09182 0 0 0 348.75574,660.64981 236.12319,136.09182 0 0 0 581.40613,546.88467 l -465.50767,0 z"
       id="path4448"
       inkscape:connector-curvature="0" />
    <path
       style="fill:#ffed69;fill-opacity:1;stroke:none;stroke-width:1;stroke-linecap:round;stroke-linejoin:round;stroke-miterlimit:4;stroke-dasharray:none;stroke-opacity:1;filter:url(#filter4434)"
       d="m 206.5762,557.44596 c -2.8621,0 -5.7242,0 -8.5863,0 -0.33672,0 -0.67997,0.0624 -1.01015,0 -0.52206,-0.0987 -0.99317,-0.37872 -1.51523,-0.47741 -0.33018,-0.0624 -0.67344,0 -1.01015,0 -0.8418,0 -1.68359,0 -2.52539,0 -4.37823,0 0.5515,0.12483 -4.54568,-0.47741 -0.50118,-0.0592 -1.01996,0.0937 -1.51523,0 -0.36915,-0.0698 -0.641,-0.40762 -1.01015,-0.4774 -0.49527,-0.0937 -1.01016,0 -1.51523,0 -0.67344,0 -1.35207,0.0789 -2.02031,0 -0.6888,-0.0814 -1.33559,-0.36955 -2.0203,-0.47742 -0.66428,-0.10464 -1.34687,0 -2.02031,0 -1.51523,0 -3.03046,0 -4.54568,0 -0.38872,0 -2.35837,-0.0789 -2.52539,0 -0.15058,0.0712 0.11905,0.36489 0,0.47742 -0.11904,0.11252 -0.34535,-0.0503 -0.50507,0 -0.35715,0.11252 -0.65301,0.36488 -1.01015,0.4774 -0.15972,0.0503 -0.33672,0 -0.50508,0 -0.33672,0 -0.67344,0 -1.01015,0 -0.33672,0 -0.68349,-0.0772 -1.01016,0 -0.36522,0.0863 -0.65301,0.36488 -1.01015,0.47741 -0.45457,0.14322 -1.06066,-0.14322 -1.51523,0 -0.22587,0.0712 -0.29211,0.37676 -0.50507,0.47741 -0.15059,0.0712 -0.33672,0 -0.50508,0 -0.33672,0 -0.68349,-0.0772 -1.01015,0 -0.36522,0.0863 -0.64493,0.39111 -1.01016,0.4774 -0.32666,0.0772 -0.77205,-0.22504 -1.01015,0 -0.23809,0.22506 -0.18678,0.69001 0,0.95483 0.20883,0.29607 0.67344,0.31826 1.01015,0.4774 0.67344,0.31827 1.28987,0.78221 2.02031,0.95481 0.65333,0.1544 1.35021,-0.0633 2.0203,0 1.29242,0.12217 4.19306,0.6972 5.55584,0.95483 0.8418,0.15914 1.67118,0.39666 2.52539,0.4774 0.83761,0.0792 1.70363,-0.17261 2.52538,0 0.73499,0.15439 1.29635,0.75931 2.0203,0.95482 0.48564,0.13115 1.01015,0 1.51523,0 0.67344,0 1.34964,-0.0576 2.02031,0 1.18558,0.10188 2.34917,0.38396 3.53553,0.47741 0.83889,0.0661 1.68359,0 2.52538,0 0.84179,0 1.68359,0 2.52538,0 0.67344,0 1.35099,-0.0703 2.02031,0 0.85321,0.0896 1.67216,0.3878 2.52538,0.47741 1.1713,0.12301 2.36887,-0.15754 3.53553,0 0.68719,0.0928 1.33312,0.38462 2.02031,0.47741 0.5,0.0675 1.01015,0 1.51523,0 1.85194,0 3.70389,0 5.55584,0 3.03045,0 6.06091,0 9.09137,0 2.8621,0 5.7242,0 8.5863,0 0.84179,0 1.68704,0.072 2.52538,0 1.01988,-0.0876 2.01145,-0.38109 3.03045,-0.47741 0.6701,-0.0633 1.36291,0.13809 2.02031,0 0.88505,-0.18591 1.64033,-0.76892 2.52538,-0.95482 0.6574,-0.13808 1.34687,0 2.02031,0 1.01015,0 2.0203,0 3.03045,0 1.01016,0 2.02446,-0.0865 3.03046,0 0.85494,0.0734 1.6786,0.34401 2.52538,0.47741 1.17428,0.185 2.3555,0.32869 3.53554,0.47741 2.69089,0.33912 5.40782,0.50889 8.08122,0.95481 5.26203,0.87773 3.43235,0.81109 8.08122,1.90964 2.31382,0.54676 4.11253,0.66494 6.56599,0.95482 1.34687,0.15913 2.6969,0.29596 4.04061,0.47741 1.01379,0.13688 2.00864,0.41301 3.03046,0.4774 1.51187,0.0953 3.03045,0 4.54568,0 3.19882,0 6.39764,0 9.59645,0 3.87225,0 7.7445,0 11.61676,0 1.01015,0 2.0203,0 3.03045,0 1.01016,0 2.02255,0.0635 3.03046,0 1.52118,-0.0959 3.02451,-0.38155 4.54569,-0.4774 1.84784,-0.11644 3.70389,0 5.55584,0 3.19881,0 6.39763,0 9.59645,0 4.04061,0 8.08122,0 12.12183,0 1.01015,0 2.0203,0 3.03045,0 0.67344,0 1.35207,-0.0789 2.02031,0 1.3776,0.16276 2.66078,0.80989 4.04061,0.95481 0.83664,0.0879 1.68359,0 2.52538,0 2.18866,0 4.37733,0 6.56599,0 0.67344,0 1.35364,-0.09 2.02031,0 0.52704,0.0712 0.99007,0.39468 1.51523,0.4774 0.4982,0.0785 1.01523,-0.0675 1.51523,0 6.42841,0.86805 -4.24604,0.18274 5.55583,0.95483 0.83889,0.0661 1.68359,0 2.52539,0 2.18866,0 4.37732,0 6.56599,0 2.69374,0 5.38748,0 8.08122,0 0.67343,0 1.34687,0 2.0203,0 0.50508,0 1.01703,0.0784 1.51523,0 0.52515,-0.0827 0.99317,-0.37872 1.51523,-0.47741 0.33018,-0.0624 0.68349,0.0772 1.01015,0 0.36522,-0.0863 0.64493,-0.39111 1.01016,-0.47742 0.32666,-0.0772 0.67343,0 1.01015,0 1.01015,0 2.0203,0 3.03046,0 2.35702,0 4.71404,0 7.07106,0 3.53554,0 7.07107,0 10.60661,0 1.34687,0 2.69374,0 4.04061,0 0.67343,0 1.35207,-0.0789 2.0203,0 0.6888,0.0814 1.34687,0.31828 2.02031,0.47742 0.67343,0.15913 1.34687,0.31827 2.0203,0.47741 0.67344,0.15914 1.33039,0.40495 2.02031,0.4774 0.83664,0.0879 1.69504,-0.13081 2.52538,0 1.20899,0.19046 2.32963,0.74757 3.53553,0.95482 0.66257,0.11387 1.35603,-0.10465 2.02031,0 0.37134,0.0585 0.64493,0.39111 1.01015,0.47741 0.32666,0.0772 0.68349,-0.0772 1.01015,0 0.36522,0.0863 0.65301,0.36488 1.01015,0.47741 0.15972,0.0503 0.3545,-0.0712 0.50508,0 0.21296,0.10065 0.27409,0.42282 0.50508,0.4774 0.48999,0.11579 1.01015,0 1.51523,0 1.34687,0 2.69374,0 4.04061,0 2.86209,0 5.72419,0 8.58629,0 0.81325,0 3.165,-0.35023 4.04061,0.47741 0.2381,0.22506 -0.23809,0.72977 0,0.95482 0.11905,0.11253 0.38603,-0.11252 0.50508,0 0.11905,0.11253 0,0.31827 0,0.47741 0,0.15914 0.11905,0.36488 0,0.47741 -0.11905,0.11252 -0.35449,-0.0712 -0.50508,0 -2.68065,1.2669 -0.28198,1.03747 -4.04061,1.43222 -0.66931,0.0703 -1.35099,-0.0703 -2.0203,0 -8.73307,0.91719 5.31414,0.0588 -6.06092,0.95482 -0.83888,0.0661 -1.68359,0 -2.52538,0 -1.17851,0 -2.35702,0 -3.53553,0 -3.87226,0 -7.74451,0 -11.61676,0 -4.20897,0 -8.41794,0 -12.6269,0 -1.34687,0 -2.69374,0 -4.04062,0 -1.01015,0 -2.02379,0.0793 -3.03045,0 -1.02055,-0.0804 -2.01058,-0.38977 -3.03046,-0.47741 -0.83834,-0.072 -1.68359,0 -2.52538,0 -2.8621,0 -5.7242,0 -8.5863,0 -0.67343,0 -1.35207,0.0789 -2.0203,0 -0.6888,-0.0814 -1.329,-0.41801 -2.02031,-0.47741 -1.17367,-0.10085 -2.35702,0 -3.53553,0 -2.18867,0 -4.37733,0 -6.56599,0 -7.40779,0 -14.81557,0 -22.22336,0 -1.34687,0 -2.69581,-0.0706 -4.04061,0 -7.94166,0.41704 -2.13118,0.48439 -9.59645,0.95482 -1.00791,0.0635 -2.02532,-0.095 -3.03046,0 -0.69071,0.0653 -1.33039,0.40495 -2.0203,0.4774 -0.83665,0.0879 -1.68359,0 -2.52538,0 -1.01016,0 -2.02031,0 -3.03046,0 -0.67344,0 -1.34687,0 -2.02031,0 -0.67343,0 -1.35207,0.0789 -2.0203,0 -0.6888,-0.0814 -1.32959,-0.41211 -2.02031,-0.4774 -1.00514,-0.095 -2.03045,0.13503 -3.03045,0 -1.37437,-0.18558 -2.68785,-0.65974 -4.04061,-0.95482 -0.83648,-0.18246 -1.6786,-0.34401 -2.52539,-0.4774 -1.17427,-0.18499 -2.3555,-0.3287 -3.53553,-0.47742 -1.34544,-0.16956 -2.70962,-0.22579 -4.04061,-0.4774 -6.3576,-1.20187 -0.63941,-0.92787 -7.57614,-1.43223 -0.83932,-0.0611 -1.68359,0 -2.52539,0 -1.01015,0 -2.0203,0 -3.03045,0 -2.69374,0 -5.38748,0 -8.08122,0 -0.76603,0 -3.36248,0.10683 -4.04061,0 -0.52516,-0.0827 -0.98819,-0.40624 -1.51523,-0.47741 -7.36081,-0.99393 4.35355,1.39187 -4.54569,-0.47741 -1.35526,-0.28467 -2.66301,-0.79205 -4.04061,-0.95481 -1.04756,-0.12377 -2.45523,0.0928 -3.53553,0 -2.27487,0.20916 -4.36512,-0.72367 -6.56599,-0.95482 -0.66932,-0.0703 -1.34687,0 -2.02031,0 -0.67343,0 -1.34687,0 -2.0203,0 -2.35703,0 -4.71405,0 -7.07107,0 -0.8418,0 -1.68359,0 -2.52538,0 -0.8418,0 -1.68874,0.0879 -2.52538,0 -1.28458,0.0799 -2.32219,-0.79098 -3.53554,-0.95481 -0.66667,-0.09 -1.35099,0.0703 -2.0203,0 -0.85322,-0.0896 -1.68359,-0.31828 -2.52539,-0.47741 -0.84179,-0.15914 -1.68735,-0.30139 -2.52538,-0.47742 -0.67763,-0.14233 -1.32959,-0.41211 -2.0203,-0.4774 -1.00514,-0.095 -2.02532,0.095 -3.03046,0 -0.69072,-0.0653 -1.34687,-0.31827 -2.0203,-0.47741 -4.9271,-1.16429 1.22522,0.25735 -4.54569,-0.95481 -0.67763,-0.14235 -1.33151,-0.39603 -2.02031,-0.47742 -0.66823,-0.0789 -1.34687,0 -2.0203,0 -0.33672,0 -0.68349,0.0772 -1.01015,0 -0.36523,-0.0863 -0.64493,-0.3911 -1.01016,-0.4774 -0.32666,-0.0772 -0.67343,0 -1.01015,0 -0.67343,0 -1.35364,0.09 -2.0203,0 -0.52705,-0.0712 -0.99873,-0.35535 -1.51523,-0.47741 -0.83284,-0.19681 -1.69995,-0.25449 -2.52538,-0.47741 -0.36198,-0.0978 -0.63882,-0.41891 -1.01016,-0.47741 -0.78782,-0.12411 -3.0309,0 -4.04061,0 -1.35584,0 -3.37302,-0.26154 -4.54568,0.47741 -0.14009,0.0883 0.11904,0.36488 0,0.47741 -0.11905,0.11253 -0.38603,-0.11253 -0.50508,0 -0.11905,0.11253 0.11905,0.36488 0,0.47741 -0.11905,0.11252 -0.38603,-0.11253 -0.50508,0 -0.11904,0.11252 0,0.31827 0,0.4774 0,0.15914 -0.0532,0.32644 0,0.47742 0.11905,0.33757 0.33672,0.63654 0.50508,0.95481 0.16836,0.31827 0.23888,0.70321 0.50508,0.95481 0.37158,0.35124 2.22951,0.8616 2.52538,0.95483 0.50507,0.15914 1.02588,0.27917 1.51523,0.4774 0.69204,0.28034 1.30602,0.72977 2.0203,0.95482 0.81441,0.2566 1.71097,0.22081 2.52538,0.47741 0.71429,0.22505 1.32826,0.67447 2.02031,0.95481 0.48935,0.19824 1.03904,0.25237 1.51523,0.47741 0.54294,0.2566 0.97229,0.69822 1.51523,0.95482 0.47619,0.22505 1.01015,0.31827 1.51523,0.47741 0.50507,0.15914 0.98818,0.40624 1.51522,0.47741 0.66667,0.09 1.34964,-0.0577 2.02031,0 2.15821,0.18545 4.40778,0.76936 6.56599,0.95482 0.83834,0.072 1.68874,-0.0879 2.52538,0 0.68992,0.0725 1.33151,0.39601 2.02031,0.4774 6.00882,0.70996 -2.63011,-1.02986 4.54568,0.47741 1.97851,0.41558 2.86297,0.8071 5.05077,0.95481 2.68689,0.18141 5.39541,-0.19528 8.08122,0 0.85593,0.0622 1.67216,0.38781 2.52538,0.47742 1.50596,0.15816 3.03492,-0.10985 4.54568,0 2.17808,-0.51365 4.02856,0.71469 6.06092,0.95481 0.66823,0.0789 1.35207,-0.0789 2.0203,0 0.68881,0.0814 1.33313,0.38462 2.02031,0.47741 0.5,0.0675 1.01015,0 1.51523,0 1.51523,0 3.03668,-0.12966 4.54569,0 0.85493,0.0735 1.66988,0.41002 2.52538,0.4774 1.17444,0.0925 2.35702,0 3.53553,0 2.18866,0 4.37733,0 6.56599,0 7.91286,0 15.82573,0 23.73859,0 2.0203,0 4.04061,0 6.06091,0 1.34687,0 2.69771,-0.0976 4.04061,0 0.85594,0.0622 1.68077,0.33226 2.52538,0.47742 1.01296,0.17408 5.72704,0.90816 6.566,0.95481 1.68068,0.0935 3.36717,0 5.05076,0 2.8621,0 5.7242,0 8.58629,0 0.8418,0 1.68874,-0.0879 2.52539,0 3.15823,0.3317 1.03835,0.69551 4.54568,1.43223 0.6574,0.13808 1.34858,-0.0454 2.02031,0 3.20831,0.21661 6.38551,0.77629 9.59645,0.95481 2.35295,0.13083 4.71404,0 7.07106,0 1.01016,0 2.02446,-0.0865 3.03046,0 0.85494,0.0734 1.67044,0.40395 2.52538,0.47741 1.00601,0.0865 2.02532,-0.095 3.03046,0 0.69072,0.0653 1.34687,0.31828 2.02031,0.47741 0.67343,0.15914 1.34687,0.31827 2.0203,0.47741 0.67344,0.15913 1.33312,0.38462 2.02031,0.47741 0.5,0.0675 1.01015,0 1.51523,0 1.17851,0 2.35702,0 3.53553,0 2.0203,0 4.04061,0 6.06091,0 10.60661,0 21.21321,0 31.81981,0 3.53553,0 7.07107,0 10.6066,0 1.51523,0 3.03668,-0.12967 4.54569,0 1.01988,0.0876 2.01828,0.33022 3.03046,0.47741 1.17663,0.1711 2.36125,0.29241 3.53553,0.4774 0.84678,0.1334 1.67554,0.36266 2.52538,0.47742 0.33333,0.045 0.68349,-0.0772 1.01015,0 2.43899,0.57634 -0.025,0.22687 1.51523,0.95481 0.15059,0.0712 0.35449,-0.0712 0.50508,0 0.57282,0.27072 0.74599,0.86293 0.50507,1.43223 -0.24561,0.58039 -1.38788,1.98852 -2.0203,2.38704 -0.14008,0.0883 -0.34876,-0.0591 -0.50508,0 -2.04095,0.77166 -2.27285,1.37255 -4.54568,1.90963 -0.79646,0.18821 -7.00935,0.87446 -7.57615,0.95482 -2.02551,0.28719 -4.06151,0.53484 -6.06091,0.95481 -10.95329,2.30074 -3.94443,1.65957 -14.14214,2.86446 -1.84522,0.21801 -3.69857,0.38962 -5.55584,0.47741 -1.51334,0.0716 -3.03046,0 -4.54568,0 -2.52539,0 -5.05077,0 -7.57615,0 -8.92301,0 -17.84603,0 -26.76904,0 -16.66752,0 -33.33503,0 -50.00255,0 -5.38748,0 -10.77496,0 -16.16244,0 -1.17851,0 -2.35702,0 -3.53554,0 -1.34687,0 -2.70414,0.1579 -4.04061,0 -1.3776,-0.16277 -2.66179,-0.80149 -4.04061,-0.95483 -1.50485,-0.16734 -3.04807,0.21778 -4.54568,0 -0.74417,-0.10821 -1.29914,-0.75031 -2.02031,-0.95481 -0.98089,-0.27815 -2.02626,-0.28757 -3.03046,-0.47741 -0.68068,-0.12868 -1.33734,-0.36004 -2.0203,-0.4774 -2.50664,-0.43079 -5.07205,-0.51103 -7.57614,-0.95482 -1.36455,-0.24184 -2.66447,-0.78138 -4.04061,-0.95482 -9.89691,0 0.21576,0.35226 -5.05077,-0.47741 -0.4982,-0.0784 -1.01015,0 -1.51523,0 -0.50507,0 -1.01015,0 -1.51523,0 -3.19881,0 -6.39763,0 -9.59644,0 -8.24958,0 -16.49916,0 -24.74874,0 -6.39763,0 -12.79527,0 -19.1929,0 -1.85195,0 -3.70389,0 -5.55584,0 -0.50508,0 -1.01015,0 -1.51523,0 -0.33672,0 -0.67801,-0.0524 -1.01015,0 -1.91207,-1.60657 -1.64581,0.74697 -2.52538,0.95482 -1.68359,0.39784 -1.12239,-0.26523 -2.52538,0 -1.04412,0.19738 -1.98634,0.75743 -3.03046,0.95481 -0.74917,0.14163 -1.57818,-0.35839 -2.02031,0.47742 -0.4396,0.83103 0.71085,0.40668 1.01016,0.4774 0.75597,0.17864 1.98223,1.17553 2.52538,1.43222 0.47619,0.22506 1.02091,0.29052 1.51523,0.47742 0.34953,0.13215 0.63881,0.41891 1.01015,0.47741 0.66427,0.10464 1.35207,-0.0789 2.0203,0 1.37761,0.16276 2.66625,0.76923 4.04061,0.95481 0.5,0.0675 1.01016,0 1.51523,0 1.01016,0.15914 2.02289,0.30425 3.03046,0.4774 0.84462,0.14516 1.69255,0.28061 2.52538,0.47742 0.5165,0.12205 0.98818,0.40623 1.51523,0.47741 0.66667,0.09 1.35099,-0.0703 2.02031,0 0.85321,0.0896 1.67216,0.38779 2.52538,0.4774 0.66931,0.0703 1.35773,-0.11386 2.0203,0 1.2059,0.20725 2.33707,0.71207 3.53554,0.95482 1.16405,0.23578 2.36125,0.29242 3.53553,0.47741 1.69357,0.26679 3.36718,0.63655 5.05076,0.95481 0.8418,0.15914 1.67217,0.38781 2.52538,0.47741 1.33864,0.14059 2.71207,-0.20929 4.04061,0 0.37134,0.0585 0.65301,0.36489 1.01016,0.47741 1.55546,0.49009 2.94444,0.57644 4.54568,0.95482 1.18908,0.28098 2.32219,0.79098 3.53554,0.95481 0.51069,0.069 5.81559,-0.0591 6.56599,0 3.64973,0.28749 2.08131,0.44449 5.05076,0.95482 1.17128,0.20129 2.3589,0.30631 3.53554,0.47741 2.02435,0.29438 4.05251,0.57514 6.06091,0.95481 0.68068,0.12869 1.34687,0.31828 2.02031,0.47742 1.17851,0.15913 2.36125,0.29241 3.53553,0.47741 0.84678,0.1334 1.67118,0.39666 2.52538,0.4774 0.83762,0.0792 1.68359,0 2.52538,0 0.8418,0 1.68359,0 2.52538,0 2.35703,0 4.71405,0 7.07107,0 10.10153,0 20.20305,0 30.30458,0 4.04061,0 8.08122,0 12.12183,0 1.68359,0 3.36717,0 5.05076,0 0.50508,0 1.01523,-0.0675 1.51523,0 0.68718,0.0928 1.33151,0.39603 2.02031,0.47741 0.66823,0.0789 1.3629,-0.13809 2.0203,0 0.88505,0.18591 1.63635,0.78675 2.52538,0.95482 0.82545,0.15604 1.68705,-0.072 2.52538,0 1.01988,0.0876 2.01058,0.38977 3.03046,0.47741 0.83834,0.072 1.68359,0 2.52538,0 2.18867,0 4.37733,0 6.56599,0 1.17852,0 2.3611,-0.0925 3.53554,0 0.8555,0.0674 1.67118,0.39666 2.52538,0.4774 5.66643,0.53561 -1.06647,-0.86998 6.06091,0.47741 0.52206,0.0987 0.99008,0.39468 1.51523,0.47741 0.49821,0.0785 1.02524,-0.11579 1.51523,0 0.23099,0.0545 0.2792,0.40624 0.50508,0.47741 0.31944,0.10064 0.67997,-0.0624 1.01015,0 0.52206,0.0987 0.99873,0.35535 1.51523,0.47741 0.82932,0.19597 0.47126,-0.50938 1.51523,0.47741 0.3419,0.32317 -0.42414,1.08603 -1.01015,1.43222 -0.95772,0.56579 -1.97299,1.0574 -3.03046,1.43222 -1.6458,0.58337 -3.37579,0.92848 -5.05076,1.43223 -2.02934,0.61033 -4.05089,1.24467 -6.06092,1.90964 -1.3577,0.44916 -2.62404,1.19593 -4.04061,1.43222 -2.0919,0.34893 -9.0312,-0.34792 -10.6066,-0.47741 -1.85195,-0.15914 -3.70389,-0.31827 -5.55584,-0.47741 -1.17851,0 -2.35932,0.0695 -3.53553,0 -1.52159,-0.0899 -3.02411,-0.38751 -4.54569,-0.4774 -1.17622,-0.0695 -2.35702,0 -3.53553,0 -2.8621,0 -5.7242,0 -8.5863,0 -2.18867,0 -4.38289,0.14739 -6.56599,0 -7.21129,-0.48689 -6.71755,-1.04349 -13.13199,-1.90964 -1.67498,-0.22617 -3.39163,-0.16376 -5.05076,-0.4774 -0.88903,-0.16807 -1.64581,-0.74697 -2.52538,-0.95483 -1.15493,-0.27291 -2.36126,-0.29241 -3.53553,-0.4774 -0.84679,-0.1334 -1.6769,-0.35402 -2.52539,-0.47741 -1.34156,-0.19508 -2.69374,-0.31828 -4.04061,-0.47741 -1.34687,-0.15913 -2.68626,-0.39206 -4.04061,-0.47741 -1.1759,-0.0741 -2.35702,0 -3.53553,0 -1.01015,0 -2.0203,0 -3.03046,0 -3.36717,0 -6.73435,0 -10.10152,0 -9.09138,0 -18.18275,0 -27.27412,0 -4.20897,0 -8.41794,0 -12.62691,0 -1.51523,0 -3.03046,0 -4.54568,0 -0.67344,0 -1.35364,0.09 -2.02031,0 -0.52705,-0.0712 -0.99873,-0.35535 -1.51523,-0.47741 -0.48999,-0.11579 -1.01996,0.0937 -1.51523,0 -1.04411,-0.19738 -1.98015,-0.78935 -3.03046,-0.95481 -0.4982,-0.0784 -1.01015,0 -1.51522,0 -1.01016,0 -2.02031,0 -3.03046,0 -0.31673,0 -1.95792,-0.059 -2.02031,0 -0.11904,0.11253 -0.11904,0.36488 0,0.47741 0.11905,0.11252 0.34536,-0.0503 0.50508,0 0.35714,0.11252 0.66062,0.34525 1.01015,0.4774 0.49432,0.1869 1.03904,0.25236 1.51523,0.47741 0.54294,0.2566 0.97229,0.69822 1.51523,0.95482 0.81092,0.38325 1.71446,0.57156 2.52538,0.95481 0.54294,0.2566 0.93935,0.77338 1.51523,0.95483 2.55905,0.80628 4.98565,0.2548 7.57614,0.4774 1.01988,0.0876 2.00991,0.39702 3.03046,0.47741 1.00666,0.0793 2.0366,-0.1708 3.03046,0 9.251,1.58986 -3.29032,0.26369 4.54569,1.90963 0.82174,0.17261 1.68649,-0.0661 2.52538,0 2.37273,0.1869 4.711,0.65738 7.07106,0.95482 1.34545,0.16957 2.70173,0.26648 4.04062,0.47741 0.68471,0.10787 1.3315,0.39602 2.0203,0.47741 0.66823,0.0789 1.35364,-0.09 2.02031,0 0.52704,0.0712 0.99872,0.35535 1.51522,0.4774 0.83284,0.19681 1.68077,0.33226 2.52539,0.47741 6.94274,1.19317 -1.57286,-0.34236 7.57614,0.95482 1.86148,0.26393 3.68061,0.80068 5.55584,0.95482 2.01271,0.16542 4.04061,0 6.06091,0 6.22928,0 12.45855,0 18.68783,0 17.00423,0 34.00846,0 51.0127,0 12.29019,0 24.58038,0 36.87057,0 2.8621,0 5.7242,0 8.58629,0 1.34687,0 2.69374,0 4.04061,0 0.67344,0 1.35207,0.0789 2.02031,0 6.26337,-0.74004 -1.49638,-0.1621 3.53553,-0.95482 0.49821,-0.0785 1.01996,0.0937 1.51523,0 0.36915,-0.0698 0.66062,-0.34525 1.01015,-0.47741 0.98864,-0.37379 2.04183,-0.58102 3.03046,-0.95482 0.34954,-0.13215 0.65301,-0.36487 1.01015,-0.4774 0.65854,-0.20749 1.39943,-0.18398 2.02031,-0.47741 0.42592,-0.2013 0.6292,-0.68476 1.01015,-0.95482 0.30117,-0.2135 0.67344,-0.31827 1.01015,-0.47741 0.67344,-0.31826 1.29914,-0.75032 2.02031,-0.95481 0.9809,-0.27815 2.05892,-0.17131 3.03046,-0.47742 0.0193,-0.006 2.93648,-1.85633 3.03046,-1.90962 0.74644,-0.42334 1.69938,-0.75963 2.52538,-0.95482 0.16333,-0.0386 0.35449,0.0712 0.50507,0 0.21296,-0.10065 0.29212,-0.37676 0.50508,-0.47741 0.15058,-0.0712 0.38603,0.11253 0.50508,0 0.11904,-0.11253 -0.11905,-0.36488 0,-0.47741 0.11904,-0.11252 0.58036,0.14234 0.50507,0 -0.61921,-1.17059 -2.53294,-1.53056 -3.53553,-1.90963 -6.10949,-2.30992 1.8686,0.58178 -6.56599,-1.90964 -1.37298,-0.40555 -2.69085,-0.96218 -4.04061,-1.43223 -11.74954,-4.09164 -0.54349,-0.83234 -9.09138,-1.90962 -0.0235,-0.003 -8.02663,-1.89932 -8.08122,-1.90964 -1.42193,-0.2688 -6.99182,-0.88126 -8.08122,-0.95482 -0.83965,-0.0567 -1.68359,0 -2.52538,0 -1.17851,0 -2.35702,0 -3.53553,0 -2.52538,0 -5.05077,0 -7.57615,0 -1.17851,0 -2.35702,0 -3.53553,0 -0.50508,0 -1.01324,0.0527 -1.51523,0 -0.24847,-0.0261 -5.30737,-0.92871 -5.55584,-0.95481 -0.66931,-0.0703 -1.34687,0 -2.0203,0 -1.01016,-0.15914 -2.02031,-0.31828 -3.03046,-0.47741 -1.01015,-0.15914 -2.02031,-0.31827 -3.03046,-0.47741 -1.01015,-0.15913 -2.00991,-0.39702 -3.03046,-0.47741 -1.00666,-0.0793 -2.0203,0 -3.03045,0 -2.35703,0 -4.71927,0.1482 -7.07107,0 -1.18784,-0.0749 -2.35425,-0.33784 -3.53554,-0.47741 -4.04011,-0.47734 -8.10251,-0.79903 -12.12183,-1.43222 -0.84678,-0.13339 -1.6769,-0.35402 -2.52538,-0.47741 -1.34157,-0.19509 -2.69904,-0.28232 -4.04061,-0.47741 -0.84848,-0.12338 -1.67118,-0.39666 -2.52538,-0.4774 -0.83762,-0.0792 -1.68359,0 -2.52538,0 -1.51523,0 -3.03046,0 -4.54569,0 -6.56599,0 -13.13198,0 -19.69797,0 -1.68359,0 -3.36718,0 -5.05076,0 -0.67344,0 -1.34687,0 -2.02031,0 -0.50508,0 -1.01702,-0.0785 -1.51523,0 -0.52515,0.0827 -0.99317,0.37871 -1.51523,0.4774 -0.33018,0.0624 -0.67343,0 -1.01015,0 -0.50508,0 -1.01015,0 -1.51523,0 -2.77131,0 1.56371,0.0524 -4.04061,-0.4774 -0.67009,-0.0633 -1.34687,0 -2.0203,0 -0.8418,-0.15914 -1.67217,-0.38781 -2.52539,-0.47741 -0.66931,-0.0703 -1.34687,0 -2.0203,0 -0.50508,0 -1.03607,0.15097 -1.51523,0 -0.15972,-0.0503 0.11905,-0.36489 0,-0.47742 -0.2662,-0.2516 -0.74395,-0.22578 -1.01015,-0.4774 -0.11905,-0.11253 -0.16836,-0.47741 0,-0.47741 0.16836,0 -0.16836,0.47741 0,0.47741 2.43536,0 -0.0228,-0.59138 1.51523,-0.95481 0.48999,-0.11579 1.01015,0 1.51523,0 1.68358,0 3.36717,0 5.05076,0 2.0203,0 4.04061,0 6.06091,0 0.67344,0 1.34687,0 2.02031,0 0.33672,0 0.67802,-0.0524 1.01015,0 0.68472,0.10786 1.33559,0.36953 2.02031,0.4774 0.33213,0.0524 0.67801,-0.0524 1.01015,0 1.36943,0.21574 2.68535,0.67015 4.04061,0.95481 0.83802,0.17603 1.68359,0.31828 2.52538,0.47742 0.84179,0.15913 1.67044,0.40395 2.52538,0.47741 1.00601,0.0865 2.02031,0 3.03046,0 0.50508,0 1.01702,-0.0785 1.51523,0 0.52515,0.0827 0.99873,0.35535 1.51523,0.4774 0.63382,0.14978 1.38648,-0.14977 2.0203,0 0.87957,0.20785 1.62786,0.83363 2.52538,0.95482 1.5,0.20255 3.03973,-0.15816 4.54569,0 1.5427,0.16202 3.01853,0.69236 4.54569,0.95482 2.17869,0.37442 4.39142,0.55953 6.56599,0.95481 2.20577,0.40096 4.38687,0.91729 6.56599,1.43223 1.86227,0.44007 3.66722,1.10765 5.55584,1.43223 3.44859,0.59266 6.19402,0.4774 9.59645,0.4774 2.8621,0 5.7242,0 8.58629,0 1.01016,0 2.03046,-0.13503 3.03046,0 1.37437,0.18558 2.68207,0.68448 4.04061,0.95482 3.01414,0.59979 9.87059,1.66151 12.62691,1.90963 1.1732,0.10562 2.35702,0 3.53553,0 4.20897,0 8.41794,0 12.62691,0 2.8621,0 5.7242,0 8.5863,0 1.01015,0 2.0203,0 3.03045,0 0.8418,0 1.68777,0.0792 2.52539,0 4.28404,-0.40493 0.80988,-0.43008 5.05076,-1.43223 0.48999,-0.11579 1.01015,0 1.51523,0 0.67343,0 1.35207,0.0789 2.0203,0 0.6888,-0.0814 1.34687,-0.31826 2.02031,-0.4774 1.01015,-0.15914 2.01263,-0.37052 3.03045,-0.47741 0.50199,-0.0527 1.01016,0 1.51523,0 1.85195,0 3.7039,0 5.55584,0 0.67344,0 1.35207,0.0789 2.02031,0 0.6888,-0.0814 1.33734,-0.36003 2.0203,-0.47741 1.17128,-0.20129 2.36126,-0.29242 3.53554,-0.4774 0.84678,-0.1334 1.67216,-0.38781 2.52538,-0.47742 0.66931,-0.0703 1.34687,0 2.0203,0 2.02031,0 4.04061,0 6.06092,0 0.50507,0 1.01015,0 1.51523,0 0.50507,0 1.01702,0.0785 1.51523,0 0.52515,-0.0827 1.01015,-0.31827 1.51523,-0.4774 0.67343,-0.15914 1.33312,-0.38462 2.0203,-0.47741 0.5,-0.0675 1.01405,0.0592 1.51523,0 0.85183,-0.10065 1.67217,-0.38781 2.52538,-0.47741 1.33863,-0.14059 2.70414,0.15791 4.04061,0 0.6888,-0.0814 1.33962,-0.34873 2.02031,-0.47741 1.00419,-0.18983 2.02289,-0.30425 3.03045,-0.47741 1.85195,-0.31827 3.7039,-0.63654 5.55584,-0.95481 0.84462,-0.14516 1.67217,-0.38781 2.52538,-0.47741 0.66932,-0.0703 1.3547,0.0968 2.02031,0 3.06828,-0.44619 6.01819,-1.49466 9.09137,-1.90963 2.00693,-0.27101 4.05604,-0.19316 6.06092,-0.47741 1.37296,-0.19466 2.65991,-0.81745 4.04061,-0.95482 1.84177,-0.18325 3.71522,0.19331 5.55584,0 1.21817,-0.12793 2.32654,-0.76436 3.53553,-0.95481 0.83034,-0.13081 1.71598,0.21858 2.52538,0 0.45787,-0.12366 0.56802,-0.78765 1.01015,-0.95483 0.0644,-0.0244 2.83347,0.0233 3.03046,0 0.85184,-0.10064 1.68077,-0.33225 2.52538,-0.4774 1.00757,-0.17316 2.02031,-0.31827 3.03046,-0.47741 1.01015,-0.15914 2.00991,-0.39702 3.03046,-0.47741 1.00666,-0.0793 2.0203,0 3.03046,0 1.01015,-0.31827 1.97804,-0.80178 3.03045,-0.95482 1.16481,-0.16938 2.35703,0 3.53554,0 0.84179,0 1.68358,0 2.52538,0 0.50508,0 1.01324,0.0527 1.51523,0 1.01782,-0.10689 2.01428,-0.35734 3.03046,-0.4774 0.33411,-0.0395 0.68348,0.0772 1.01015,0 2.43898,-0.57635 -0.025,-0.22688 1.51523,-0.95482 0.15058,-0.0712 0.35449,0.0712 0.50507,0 0.81697,-0.38611 0.75558,-1.43094 1.51523,-1.90963 0.31324,-0.19739 0.69692,-0.28003 1.01015,-0.47741 0.19811,-0.12484 0.3146,-0.34238 0.50508,-0.47741 0.48562,-0.34426 1.02961,-0.61055 1.51523,-0.95482 1.67513,-1.58336 -0.47619,0.22506 1.01015,-0.4774 0.21296,-0.10065 0.29212,-0.37677 0.50508,-0.47741 0.15058,-0.0712 0.67343,0 0.50507,0 -2.61514,0 -5.02921,-0.98084 -7.57614,-1.43223 -4.48139,-0.79423 -5.56469,-0.189 -10.6066,-1.43223 -3.50912,-0.86527 -6.59437,-2.94688 -10.10153,-3.81926 -1.47435,-0.36674 -3.0345,-0.28695 -4.54568,-0.47741 -1.01511,-0.12793 -2.00795,-0.42371 -3.03046,-0.47741 -2.0172,-0.10593 -4.04061,0 -6.06092,0 -1.68358,0 -3.36717,0 -5.05076,0 -5.05076,0 -10.10152,0 -15.15229,0 -1.85194,0 -3.70389,0 -5.55584,0 -0.33671,0 -0.67343,0 -1.01015,0 -0.33672,0 -0.68349,-0.0772 -1.01015,0 -0.36522,0.0863 -0.64493,0.39111 -1.01015,0.47741 -0.32667,0.0772 -0.67344,0 -1.01016,0 -1.34687,0 -2.69374,0 -4.04061,0 -2.8621,0 -5.72419,0 -8.58629,0 -2.18867,0 -4.37733,0 -6.56599,0 -1.17852,0 -2.36002,-0.0794 -3.53554,0 -2.54125,0.17157 -5.03489,0.78324 -7.57614,0.95482 -1.00759,0.068 -2.02031,0 -3.03046,0 -1.17851,0 -2.35702,0 -3.53553,0 -3.7039,0 -7.40779,0 -11.11168,0 -3.19882,0 -6.39764,0 -9.59645,0 -1.34687,0 -2.69374,0 -4.04061,0 -0.67344,0 -1.35099,0.0703 -2.02031,0 -8.11819,-0.85261 6.08189,-0.27535 -7.57614,-0.95482 -2.52189,-0.12546 -5.05076,0 -7.57614,0 -6.39764,0 -12.79527,0 -19.1929,0 -2.18867,0 -4.37733,0 -6.56599,0 -1.34687,0 -2.69771,0.0977 -4.04062,0 -0.85593,-0.0622 -1.67444,-0.37016 -2.52538,-0.47741 -1.67714,-0.21137 -3.3818,-0.21449 -5.05076,-0.47741 -1.36943,-0.21574 -2.66843,-0.75527 -4.04061,-0.95481 -0.832,-0.12099 -1.68776,0.0792 -2.52538,0 -1.58545,0.0273 -3.00299,-0.7928 -4.54569,-0.95482 -0.83664,-0.0879 -1.68776,0.0792 -2.52538,0 -1.70841,-0.16148 -3.35719,-0.68801 -5.05076,-0.95481 -1.17851,-0.15914 -2.35702,-0.31828 -3.53554,-0.47741 -0.67343,0 -1.35207,0.0789 -2.0203,0 -0.6888,-0.0814 -1.33559,-0.36955 -2.02031,-0.47742 -0.83034,-0.13081 -1.69504,0.13081 -2.52538,0 -0.52515,-0.0827 -0.99317,-0.37871 -1.51523,-0.4774 -0.33017,-0.0624 -0.67681,0.045 -1.01015,0 -0.84983,-0.11476 -1.67354,-0.37676 -2.52538,-0.47741 -0.66823,-0.0789 -1.34687,0 -2.0203,0 -0.16836,0 -0.38603,0.11253 -0.50508,0 -0.11905,-0.11253 -0.11905,-0.36488 0,-0.47741 0.11905,-0.11252 0.33672,0 0.50508,0 0.84179,0 1.68358,0 2.52538,0 1.68358,0 3.36717,0 5.05076,0 4.37733,0 8.75465,0 13.13198,0 5.11488,0 7.19923,-0.1873 12.12183,0.47741 1.69968,0.22951 3.35283,0.71408 5.05077,0.95481 1.67326,0.23724 3.37749,0.24017 5.05076,0.47742 9.85935,1.39788 -0.0794,0.78367 12.62691,1.90962 7.1802,0.63628 9.97514,0.47742 17.17259,0.47742 4.04061,0 8.08122,0 12.12183,0 1.17851,0 2.36049,0.0854 3.53553,0 2.04214,-0.14849 4.02116,-0.77955 6.06092,-0.95482 0.83834,-0.072 1.69993,0.15605 2.52538,0 0.88903,-0.16807 1.63887,-0.77526 2.52538,-0.95481 1.49071,-0.30194 3.03291,-0.29867 4.54569,-0.47741 1.18128,-0.13958 2.34737,-0.40722 3.53553,-0.47742 3.54311,-0.20931 8.93617,0.25436 12.12183,0.47742 2.02177,0.14155 4.04274,0.29573 6.06092,0.47741 1.51768,0.13662 3.025,0.37473 4.54568,0.4774 0.83966,0.0567 1.68359,0 2.52539,0 1.01015,0 2.0203,0 3.03045,0 0.67344,0 1.35604,0.10465 2.02031,0 3.15351,-0.49679 0.96674,-0.21819 3.53553,-1.43223 1.12236,-0.53044 3.61455,-0.88146 4.54569,-0.95481 3.85735,-0.30383 2.45895,0.49311 6.56599,-0.47741 0.87957,-0.20785 1.63108,-0.81393 2.52538,-0.95482 1.16248,-0.18312 2.36109,0.0925 3.53554,0 1.2042,-0.0949 6.03078,-1.31548 6.56599,-1.43222 0.83648,-0.18246 1.71097,-0.22081 2.52538,-0.47741 2.0896,-0.65838 2.21427,-1.50895 4.54568,-1.90963 0.99386,-0.1708 2.0238,0.0793 3.03046,0 1.02055,-0.0804 2.00939,-0.40317 3.03046,-0.47741 2.58744,-0.18813 5.56291,0.12036 8.08122,0.47741 1.86148,0.26392 3.68201,0.78613 5.55584,0.95481 1.676,0.15088 3.36717,0 5.05076,0 4.71405,0 9.42809,0 14.14214,0 2.0203,0 4.04061,0 6.06091,0 0.50508,0 1.02524,0.11579 1.51523,0 0.23099,-0.0545 0.33672,-0.63654 0.50508,-0.4774 0.16836,0.15914 -0.50508,0.70246 -0.50508,0.4774 0,-0.50323 0.50508,-0.92899 0.50508,-1.43222 0,-0.15913 -0.33999,0.0312 -0.50508,0 -0.68068,-0.12868 -1.33559,-0.36954 -2.0203,-0.47741 -7.16543,-1.12882 -0.88095,0.19517 -8.5863,-0.95481 -1.69592,-0.25311 -3.35283,-0.71409 -5.05076,-0.95483 -1.67327,-0.23724 -3.37949,-0.22797 -5.05077,-0.4774 -1.53319,-0.22883 -3.00711,-0.76091 -4.54568,-0.95481 -1.00129,-0.1262 -2.02031,0 -3.03046,0 -1.34687,0 -2.69374,0 -4.04061,0 -1.85195,0 -3.70389,0 -5.55584,0 -1.34687,0 -2.69606,-0.0748 -4.04061,0 -1.52192,0.0846 -3.02562,0.36688 -4.54569,0.4774 -0.67145,0.0489 -1.34687,0 -2.0203,0 -1.85195,0 -3.70389,0 -5.55584,0 -0.67343,0 -1.35099,-0.0703 -2.0203,0 -0.85322,0.0896 -1.66945,0.41518 -2.52539,0.47741 -1.3429,0.0976 -2.69374,0 -4.04061,0 -3.03045,0 -6.06091,0 -9.09137,0 -8.41794,0 -16.83587,0 -25.25381,0 -8.92302,0 -17.84603,0 -26.76905,0 -3.19881,0 -6.39763,0 -9.59644,0 -1.01016,0 -2.03405,0.15697 -3.03046,0 -1.05031,-0.16546 -1.99746,-0.71071 -3.03046,-0.95481 -1.18575,-0.2802 -6.2339,-0.8983 -7.07107,-0.95483 -1.00758,-0.068 -2.02532,0.095 -3.03046,0 -1.38143,-0.13057 -2.663,-0.79204 -4.04061,-0.95481 -0.66823,-0.0789 -1.35098,0.0703 -2.0203,0 -0.85321,-0.0896 -1.6786,-0.34401 -2.52538,-0.47741 -1.17428,-0.18499 -2.37555,-0.22438 -3.53554,-0.47741 -1.03752,-0.22631 -1.98283,-0.77477 -3.03045,-0.95481 -3.29235,-0.56582 -1.52646,0.33949 -4.04061,0 -5.22363,-0.70536 1.59195,-0.31022 -4.54569,-0.95482 -4.3692,0 0.0546,0.20129 -3.53553,-0.47741 -0.33018,-0.0624 -0.67344,0 -1.01016,0 -0.50507,0 -1.01015,0 -1.51523,0 -1.34687,0 -2.69374,0 -4.04061,0 -3.36717,0 -6.73435,0 -10.10152,0 -1.01015,0 -2.02031,0 -3.03046,0 -1.17851,0 -2.36002,0.0794 -3.53553,0 -0.58236,-0.0393 -5.11057,-0.65538 -6.06092,-0.95482 -0.71428,-0.22505 -1.29635,-0.75929 -2.0203,-0.95481 -0.97129,-0.26231 -2.03992,0.18725 -3.03046,0 -0.36915,-0.0698 -0.64493,-0.39111 -1.01015,-0.47742 -0.32667,-0.0772 -0.67344,0 -1.01016,0 -0.67343,0 -1.34687,0 -2.0203,0 -0.50508,0 -1.01523,0.0675 -1.51523,0 -0.68718,-0.0928 -1.33559,-0.36953 -2.0203,-0.4774 -0.33214,-0.0524 -0.67344,0 -1.01016,0 -0.50507,0 -1.01015,0 -1.51523,0 -2.0203,0 -4.04061,0 -6.06091,0 -6.22928,0 -12.45855,0 -18.68782,0 -2.02031,0 -4.04061,0 -6.06092,0 -0.84179,0 -1.69009,0.0987 -2.52538,0 -0.85184,-0.10065 -1.68076,-0.33225 -2.52538,-0.47741 -1.00757,-0.17315 -2.02626,-0.28756 -3.03046,-0.4774 -0.68068,-0.12868 -1.3315,-0.39603 -2.0203,-0.47741 -0.66824,-0.0789 -1.34687,0 -2.02031,0 -0.67343,0 -1.34687,0 -2.0203,0 -0.33672,0 -0.67998,0.0624 -1.01016,0 -0.52206,-0.0987 -1.01015,-0.31828 -1.51523,-0.47742 -0.84179,0 -1.68873,0.0879 -2.52538,0 -0.68991,-0.0724 -1.34267,-0.33507 -2.0203,-0.4774 -0.83802,-0.17603 -1.67355,-0.37676 -2.52538,-0.47741 -0.8353,-0.0987 -1.68359,0 -2.52538,0 -1.34687,0 -2.69374,0 -4.04061,0 -0.16836,0 0.33671,0 0.50507,0 0.8418,0 1.68359,0 2.52538,0 1.51523,0 3.03279,-0.0795 4.54569,0 4.48249,0.23539 3.76802,0.47488 7.57614,0.95481 1.51118,0.19046 3.04725,0.21185 4.54569,0.47742 1.20468,0.2135 2.32654,0.76435 3.53553,0.95481 0.83034,0.13081 1.69504,-0.13081 2.52539,0 1.20899,0.19046 2.32963,0.74757 3.53553,0.95481 0.66257,0.11387 1.35021,-0.0633 2.0203,0 1.01901,0.0963 2.01058,0.38978 3.03046,0.47742 0.83834,0.072 1.68359,0 2.52538,0 1.85195,0 3.7039,0 5.55584,0 4.71405,0 9.42809,0 14.14214,0 4.37733,0 8.75465,0 13.13198,0 0.84179,0 1.68359,0 2.52538,0 1.01015,0 2.02446,0.0865 3.03046,0 0.85494,-0.0734 1.67118,-0.39667 2.52538,-0.47742 0.83762,-0.0792 1.68359,0 2.52538,0 1.01016,0 2.02031,0 3.03046,0 3.19882,0 6.39763,0 9.59645,0 1.01015,0 2.02379,0.0793 3.03046,0 1.02055,-0.0803 2.01145,-0.38108 3.03045,-0.4774 0.6701,-0.0633 1.34687,0 2.02031,0 1.01015,0 2.0203,0 3.03046,0 2.69374,0 5.38748,0 8.08122,0 3.53553,0 7.07107,0 10.6066,0 0.84179,0 1.68359,0 2.52538,0 1.17851,0 2.36186,-0.10085 3.53553,0 0.69131,0.0594 1.32819,0.42709 2.02031,0.4774 1.51077,0.10986 3.03046,0 4.54569,0 3.36717,0 6.73435,0 10.10152,0 2.18867,0 4.37733,0 6.56599,0 0.50508,0 1.01016,0 1.51523,0 0.33672,0 0.67998,0.0624 1.01015,0 0.52206,-0.0987 0.99318,-0.37871 1.51523,-0.4774 0.54697,-0.1034 2.99562,0 3.53554,0 2.0203,0 4.04061,0 6.06091,0 1.51523,0 3.03046,0 4.54569,0 0.33672,0 1.01015,-0.31827 1.01015,0 0,0.31828 -0.67343,0 -1.01015,0 -0.67344,0 -1.34687,0 -2.02031,0 -2.52538,0 -5.05076,0 -7.57614,0 -6.06092,0 -12.12183,0 -18.18275,0 -1.17851,0 -2.35702,0 -3.53553,0 -0.50508,0 -1.01996,0.0937 -1.51523,0 -0.36915,-0.0698 -0.641,-0.40762 -1.01015,-0.47741 -0.49527,-0.0937 -1.01523,0.0675 -1.51523,0 -0.68718,-0.0928 -1.33312,-0.38461 -2.02031,-0.4774 -0.5,-0.0675 -1.01522,0.0675 -1.51522,0 -0.68719,-0.0928 -1.33151,-0.39603 -2.02031,-0.47741 -0.66823,-0.0789 -1.35364,0.09 -2.0203,0 -1.02765,0.16581 -1.63635,-0.78676 -2.52539,-0.95482 -0.49526,-0.0937 -1.01015,0 -1.51522,0 -0.8418,0 -1.69009,0.0987 -2.52539,0 -0.52828,-0.0624 -1.00331,-0.33916 -1.51522,-0.47741 -0.66746,-0.18025 -1.33559,-0.36954 -2.02031,-0.47741 -0.33214,-0.0523 -0.67343,0 -1.01015,0 -0.50508,0 -1.01015,0 -1.51523,0 -2.02031,0 -4.04061,0 -6.06092,0 -5.72419,0 -11.44839,0 -17.17259,0 -1.51523,0 -3.03046,0 -4.54569,0 -0.67343,0 -1.35994,0.12484 -2.0203,0 -7.35312,-1.39006 1.24286,-0.66514 -6.06092,-1.43222 -0.50198,-0.0527 -1.01015,0 -1.51523,0 -1.01015,0 -2.0203,0 -3.03045,0 -0.50508,0 -1.01016,0 -1.51523,0 -0.16836,0 -0.34536,0.0503 -0.50508,0 -4.33379,-1.36546 3.21936,0.4276 -2.52538,-0.47741 -4.73333,-0.74568 2.88267,-0.3599 -4.04061,-0.95482 -1.006,-0.0865 -2.02379,0.0793 -3.03046,0 -1.7864,0.201 -3.34433,-0.7756 -5.05076,-0.95482 -0.83664,-0.0879 -1.69205,0.11253 -2.52538,0 -0.37268,-0.0503 -0.63881,-0.4189 -1.01015,-0.4774 -2.35703,-0.37132 -1.47314,0.27849 -3.53554,0 -0.68718,-0.0928 -1.34267,-0.33507 -2.0203,-0.47741 -0.83802,-0.17603 -1.6786,-0.34401 -2.52538,-0.47741 -1.17428,-0.18499 -2.36426,-0.27611 -3.53554,-0.47741 -6.40431,-1.51337 2.29315,0.37785 -4.04061,-0.47741 -0.52704,-0.0712 -0.99317,-0.37871 -1.51523,-0.4774 -0.33018,-0.0624 -0.67343,0 -1.01015,0 -0.50508,0 -1.01015,0 -1.51523,0 -2.0203,0 -4.04061,0 -6.06091,0 -1.51523,0 -3.03046,0 -4.54569,0 -0.50508,0 -1.03607,-0.15097 -1.51523,0 -0.22588,0.0712 -0.2792,0.40623 -0.50508,0.4774 -0.31943,0.10065 -0.68348,-0.0772 -1.01015,0 -0.36522,0.0863 -0.64493,0.3911 -1.01015,0.47741 -0.32666,0.0772 -0.68349,-0.0772 -1.01015,0 -0.36522,0.0863 -0.64493,0.39111 -1.01016,0.47741 -0.32666,0.0772 -0.67343,0 -1.01015,0 -0.50507,0 -1.01015,0 -1.51523,0 -0.33671,0 -0.67682,-0.045 -1.01015,0 -7.93107,1.07095 -0.48384,-0.24874 -3.03046,0.95482 -0.15058,0.0712 -0.33671,0 -0.50507,0 -0.50508,0 -1.01016,0 -1.51523,0 -1.51523,0 -3.03046,0 -4.54569,0 -0.33672,0 -0.67997,-0.0624 -1.01015,0 -0.52206,0.0987 -0.99317,0.37871 -1.51523,0.4774 -0.49673,0.094 -3.45867,0 -3.53553,0 -2.02031,0 -4.04061,0 -6.06092,0 -1.01015,0 -2.0203,0 -3.03046,0 -0.67343,0 -1.35207,-0.0789 -2.0203,0 -0.6888,0.0814 -1.33559,0.36954 -2.02031,0.47741 -0.33213,0.0524 -0.67343,0 -1.01015,0 -1.01015,0 -2.0203,0 -3.03046,0 -0.50507,0 -1.01702,-0.0784 -1.51523,0 -0.52515,0.0827 -1.00331,0.33917 -1.51522,0.47741 -0.66746,0.18026 -1.35286,0.29715 -2.02031,0.47741 -0.51191,0.13824 -0.98694,0.41499 -1.51523,0.47741 -0.83529,0.0987 -1.68359,0 -2.52538,0 -1.51523,0 -3.03046,0 -4.54569,0 -2.0203,0 -4.04061,0 -6.06091,0 -0.83635,0 -2.85137,0.10778 -3.53554,0 -0.52515,-0.0827 -0.99007,-0.39468 -1.51522,-0.47741 -0.49821,-0.0785 -1.01016,0 -1.51523,0 -0.67344,-0.31827 -1.30602,-0.72976 -2.02031,-0.95482 -0.31944,-0.10064 -0.67343,0 -1.01015,0 -0.58464,0 -2.07446,0.10656 -2.52538,0 -0.36522,-0.0863 -0.67344,-0.31827 -1.01015,-0.47741 -0.50508,0 -1.01703,0.0784 -1.51523,0 -0.52516,-0.0827 -0.99317,-0.37871 -1.51523,-0.4774 -0.33018,-0.0624 -0.69072,0.10065 -1.01015,0 -0.22588,-0.0712 -0.29212,-0.37677 -0.50508,-0.47741 -0.15059,-0.0712 -0.64516,-0.0883 -0.50508,0 2.60763,1.64319 1.17644,0.63626 3.53554,0.95481 7.01742,0.94757 -1.11258,-0.0242 3.03045,0.95482 0.49,0.11579 1.03608,-0.15097 1.51523,0 0.35715,0.11252 0.65301,0.36489 1.01016,0.47741 0.3474,0.10946 1.21722,-0.14084 1.51522,0 1.48635,0.70246 -0.78402,0.47741 1.51523,0.47741 1.34687,0 2.69374,0 4.04061,0 0.41351,0 2.19814,-0.10311 2.52538,0 0.35715,0.11253 0.64101,0.40763 1.01016,0.47741 0.49527,0.0937 1.01015,0 1.51523,0 0.67343,0 1.34687,0 2.0203,0 0.50508,0 1.01405,-0.0592 1.51523,0 6.6781,0.78903 -0.54067,0.0888 4.04061,0.95482 0.66036,0.12483 1.36698,-0.15439 2.02031,0 3.22498,0.76207 -2.25083,0.4774 3.03045,0.4774 3.47646,0 -2.36706,-0.10064 2.52538,0.47741 7.93575,0 -1.35831,-0.25162 4.04061,0.47741 0.66667,0.09 1.35207,-0.0789 2.02031,0 0.6888,0.0814 1.33312,0.38461 2.0203,0.4774 0.5,0.0675 1.01016,0 1.51523,0 0.33672,0 0.69072,-0.10064 1.01016,0 0.22587,0.0712 0.2792,0.40625 0.50507,0.47742 0.31944,0.10064 0.67344,0 1.01015,0 0.8418,0 1.68359,0 2.52539,0 0.33671,0 0.68348,-0.0772 1.01015,0 0.36522,0.0863 0.65301,0.36488 1.01015,0.47741 0.28496,0.0898 1.18334,0 1.51523,0 0.49786,0 1.50801,0 1.01015,0 -0.33671,0 -1.01015,0.31826 -1.01015,0 0,-0.31828 1.34687,0 1.01015,0 -3.19881,0 -6.39763,0 -9.59645,0 -1.01015,0 -2.02445,0.0865 -3.03045,0 -4.5912,-0.39453 -0.75358,-0.33343 -4.04061,-0.95483 -0.80669,-0.15249 -1.71372,0.12787 -2.52539,0 -0.68471,-0.10786 -1.35285,-0.29715 -2.0203,-0.4774 -0.51191,-0.13825 -0.99008,-0.39468 -1.51523,-0.47741 -0.75107,-0.11832 -2.17515,0 -3.03046,0 -0.16836,0 -0.34535,0.0503 -0.50507,0 -0.35715,-0.11253 -0.64493,-0.3911 -1.01016,-0.47741 -0.45787,-0.10819 -1.93865,0 -2.52538,0 -1.68359,0 -3.36717,0 -5.05076,0 -0.12249,0 -1.49899,-0.0153 -1.51523,0 -0.11905,0.11253 0.11905,0.36488 0,0.47741 -0.003,0.003 -1.49834,-0.004 -1.51523,0 -2.11312,-0.86452 -0.58423,0.75352 -1.01015,0.95481 -0.30117,0.14234 -0.67682,0.045 -1.01015,0 -0.84984,-0.11475 -1.68359,-0.31826 -2.52538,-0.4774 z"
       id="path4140"
       inkscape:connector-curvature="0" />
  </g>
</svg>
