<?xml version="1.0" encoding="UTF-8" standalone="no"?>
<!-- Created with Inkscape (http://www.inkscape.org/) -->

<svg
   xmlns:dc="http://purl.org/dc/elements/1.1/"
   xmlns:cc="http://creativecommons.org/ns#"
   xmlns:rdf="http://www.w3.org/1999/02/22-rdf-syntax-ns#"
   xmlns:svg="http://www.w3.org/2000/svg"
   xmlns="http://www.w3.org/2000/svg"
   xmlns:sodipodi="http://sodipodi.sourceforge.net/DTD/sodipodi-0.dtd"
   xmlns:inkscape="http://www.inkscape.org/namespaces/inkscape"
   width="210mm"
   height="297mm"
   viewBox="0 0 744.09448819 1052.3622047"
   id="svg2"
   version="1.1"
   inkscape:version="0.91 r13725"
   sodipodi:docname="device.svg"
   inkscape:export-filename="/Users/gtorok/github/arkona/assets/images/device.png"
   inkscape:export-xdpi="90.222435"
   inkscape:export-ydpi="90.222435">
  <defs
     id="defs4" />
  <sodipodi:namedview
     id="base"
     pagecolor="#ffffff"
     bordercolor="#666666"
     borderopacity="1.0"
     inkscape:pageopacity="0.0"
     inkscape:pageshadow="2"
     inkscape:zoom="1.4"
     inkscape:cx="336.07143"
     inkscape:cy="339.44514"
     inkscape:document-units="px"
     inkscape:current-layer="g4269"
     showgrid="true"
     inkscape:window-width="1916"
     inkscape:window-height="963"
     inkscape:window-x="15"
     inkscape:window-y="16"
     inkscape:window-maximized="0"
     objecttolerance="4"
     gridtolerance="4"
     guidetolerance="4">
    <inkscape:grid
       type="xygrid"
       id="grid4229"
       spacingx="64"
       spacingy="64.000001" />
    <inkscape:grid
       type="xygrid"
       id="grid4192"
       spacingx="16"
       spacingy="16"
       color="#ff3fef"
       opacity="0.1254902"
       empcolor="#f23fff"
       empopacity="0.25098039"
       empspacing="4" />
  </sodipodi:namedview>
  <metadata
     id="metadata7">
    <rdf:RDF>
      <cc:Work
         rdf:about="">
        <dc:format>image/svg+xml</dc:format>
        <dc:type
           rdf:resource="http://purl.org/dc/dcmitype/StillImage" />
        <dc:title></dc:title>
      </cc:Work>
    </rdf:RDF>
  </metadata>
  <g
     inkscape:label="Layer 1"
     inkscape:groupmode="layer"
     id="layer1">
    <g
       id="g4257"
       transform="translate(8.5714286,52.142857)">
      <path
         inkscape:connector-curvature="0"
         style="fill:#6f5844;fill-opacity:1;stroke:#3b3b3b;stroke-width:20;stroke-linecap:round;stroke-linejoin:round;stroke-miterlimit:4;stroke-dasharray:none;stroke-opacity:1"
         d="m 219.0789,763.03341 a 31.496762,31.496762 0 0 0 -31.49778,31.49777 31.496762,31.496762 0 0 0 31.49778,31.49778 31.496762,31.496762 0 0 0 31.49778,-31.49778 31.496762,31.496762 0 0 0 -31.49778,-31.49777 z m 0,10.78791 a 20.7102,20.7102 0 0 1 13.64534,5.15328 l -11.0569,8.22071 -12.54342,-10.7997 a 20.7102,20.7102 0 0 1 9.95498,-2.57429 z m -18.23468,10.90824 16.07804,9.80162 -0.68427,20.49042 a 20.7102,20.7102 0 0 1 -17.86896,-20.49042 20.7102,20.7102 0 0 1 2.47519,-9.80162 z m 38.12106,4.05609 a 20.7102,20.7102 0 0 1 0.82349,5.74553 20.7102,20.7102 0 0 1 -13.0295,19.22571 l -1.6399,-18.36211 13.84591,-6.60913 z"
         id="path4245" />
      <path
         id="path4220"
         d="m 219.0789,763.03341 a 31.496762,31.496762 0 0 0 -31.49778,31.49777 31.496762,31.496762 0 0 0 31.49778,31.49778 31.496762,31.496762 0 0 0 31.49778,-31.49778 31.496762,31.496762 0 0 0 -31.49778,-31.49777 z m 0,10.78791 a 20.7102,20.7102 0 0 1 13.64534,5.15328 l -11.0569,8.22071 -12.54342,-10.7997 a 20.7102,20.7102 0 0 1 9.95498,-2.57429 z m -18.23468,10.90824 16.07804,9.80162 -0.68427,20.49042 a 20.7102,20.7102 0 0 1 -17.86896,-20.49042 20.7102,20.7102 0 0 1 2.47519,-9.80162 z m 38.12106,4.05609 a 20.7102,20.7102 0 0 1 0.82349,5.74553 20.7102,20.7102 0 0 1 -13.0295,19.22571 l -1.6399,-18.36211 13.84591,-6.60913 z"
         style="fill:#6f5844;fill-opacity:1;stroke:#3b3b3b;stroke-width:1;stroke-linecap:round;stroke-linejoin:round;stroke-miterlimit:4;stroke-dasharray:none;stroke-opacity:1"
         inkscape:connector-curvature="0" />
    </g>
    <path
       inkscape:connector-curvature="0"
       style="fill:#59595a;fill-opacity:1;stroke:#000000;stroke-width:2.41618991;stroke-linecap:round;stroke-linejoin:round;stroke-miterlimit:4;stroke-dasharray:none;stroke-opacity:1"
       d="m 483.54372,477.80159 a 15.106525,11.608978 0 0 0 -15.10827,11.60904 15.106525,11.608978 0 0 0 0.42944,2.69225 l 0,0.60877 c -7.10533,-0.18319 -17.58009,-0.46444 -19.76604,-0.51438 -2.61131,-4.50598 -8.7495,-11.74353 -21.23604,-11.74353 -18.12782,0 -258.10525,6.63508 -258.10525,6.63508 0,0 -19.42246,-0.66499 -21.58054,12.60241 -0.27868,1.71328 -0.58662,5.15309 -0.9108,9.75679 a 28.440391,28.871855 0 0 0 -16.67028,26.24303 28.440391,28.871855 0 0 0 14.07949,24.88628 c -1.39001,32.74471 -2.54124,66.15028 -2.54124,66.15028 0,0 -3.02064,11.94109 18.1285,17.91143 21.14914,5.97033 295.22378,-2.65424 306.87736,-17.24839 2.44857,-3.06641 4.17383,-5.70682 5.39869,-7.98711 a 15.106525,11.608978 0 0 0 11.00498,3.6762 15.106525,11.608978 0 0 0 14.79916,-9.28724 l 0.30675,0 0,-2.32181 0,-3.28214 10.7879,-1.10899 0,1.6918 a 15.106525,11.608978 0 0 0 -0.42943,2.69933 15.106525,11.608978 0 0 0 15.1059,11.60905 15.106525,11.608978 0 0 0 14.79917,-9.28724 l 0.30674,0 0,-2.32181 0,-7.45148 8.20183,-0.84237 -0.27135,-17.05018 a 17.264599,13.267403 0 0 0 12.47264,-6.30947 40.557477,40.988936 0 0 0 23.53897,7.64969 40.557477,40.988936 0 0 0 40.55849,-40.98792 40.557477,40.988936 0 0 0 -40.55849,-40.99029 40.557477,40.988936 0 0 0 -23.35493,7.54116 17.264599,13.267403 0 0 0 -13.92612,-6.6634 l -0.18641,-11.64914 c 0,0 -5.75117,-0.15074 -6.47463,-0.1699 l 0,-4.14102 -0.0637,0 a 15.106525,11.608978 0 0 0 0.0637,-0.99574 15.106525,11.608978 0 0 0 -15.10591,-11.60904 15.106525,11.608978 0 0 0 -15.1059,11.60904 15.106525,11.608978 0 0 0 0.42943,2.69225 l 0,1.66821 c -4.66733,-0.12303 -5.71072,-0.14731 -10.7879,-0.28078 l 0,-3.08394 -0.0637,0 a 15.106525,11.608978 0 0 0 0.0637,-0.99574 15.106525,11.608978 0 0 0 -15.10591,-11.60904 z"
       id="path4185"
       inkscape:export-xdpi="90.222435"
       inkscape:export-ydpi="90.222435" />
    <g
       transform="translate(63.214286,-171.78572)"
       id="g4201"
       style="fill:#000000;fill-opacity:1;stroke:#3b3b3b;stroke-width:20;stroke-miterlimit:4;stroke-dasharray:none;stroke-opacity:1"
       inkscape:export-xdpi="90.222435"
       inkscape:export-ydpi="90.222435">
      <path
         id="path4203"
         d="m 160.38058,733.45368 a 31.496762,31.496762 0 0 0 -31.4961,31.49609 31.496762,31.496762 0 0 0 31.4961,31.49805 31.496762,31.496762 0 0 0 31.49804,-31.49805 31.496762,31.496762 0 0 0 -31.49804,-31.49609 z m 0,11.21875 a 20.278736,20.278736 0 0 1 19.61133,15.15234 l -20.6211,3.48438 -5.2832,-17.61133 a 20.278736,20.278736 0 0 1 6.29297,-1.02539 z m -16.51172,8.53125 8.6543,12.4082 0.59179,0.84766 -3.35156,4.80469 -4.7793,6.8496 a 20.278736,20.278736 0 0 1 -4.88086,-13.16406 20.278736,20.278736 0 0 1 3.76563,-11.74609 z m 16.32617,12.84961 19.71875,4.27148 a 20.278736,20.278736 0 0 1 -17.11133,14.73633 l -3.46875,-17.98047 1.04688,-0.4043 -0.18555,-0.62304 z m -3.26562,3.64453 -3.7168,14.19727 a 20.278736,20.278736 0 0 1 -4.13672,-2.11719 l 7.85352,-12.08008 z"
         style="fill:#000000;fill-opacity:1;stroke:#3b3b3b;stroke-width:20;stroke-linecap:round;stroke-linejoin:round;stroke-miterlimit:4;stroke-dasharray:none;stroke-opacity:1"
         inkscape:connector-curvature="0" />
      <path
         id="path4205"
         d="m 191.5789,669.81913 a 31.496762,31.496762 0 0 0 -31.49778,31.49777 31.496762,31.496762 0 0 0 31.49778,31.49778 31.496762,31.496762 0 0 0 31.49778,-31.49778 31.496762,31.496762 0 0 0 -31.49778,-31.49777 z m 0,10.78791 a 20.7102,20.7102 0 0 1 13.64534,5.15328 l -11.0569,8.22071 -12.54342,-10.7997 a 20.7102,20.7102 0 0 1 9.95498,-2.57429 z m -18.23468,10.90824 16.07804,9.80162 -0.68427,20.49042 a 20.7102,20.7102 0 0 1 -17.86896,-20.49042 20.7102,20.7102 0 0 1 2.47519,-9.80162 z m 38.12106,4.05609 a 20.7102,20.7102 0 0 1 0.82349,5.74553 20.7102,20.7102 0 0 1 -13.0295,19.22571 l -1.6399,-18.36211 13.84591,-6.60913 z"
         style="fill:#000000;fill-opacity:1;stroke:#3b3b3b;stroke-width:20;stroke-linecap:round;stroke-linejoin:round;stroke-miterlimit:4;stroke-dasharray:none;stroke-opacity:1"
         inkscape:connector-curvature="0" />
      <path
         id="path4208"
         d="m 239.60201,733.4288 a 31.496762,31.496762 0 0 0 -31.49777,31.49778 31.496762,31.496762 0 0 0 31.49777,31.49541 31.496762,31.496762 0 0 0 31.49542,-31.49541 31.496762,31.496762 0 0 0 -31.49542,-31.49778 z m 0,9.92432 a 21.573125,21.573125 0 0 1 12.19421,3.78001 l -14.78264,18.65469 -15.27344,11.20083 a 21.573125,21.573125 0 0 1 -3.71159,-12.06207 21.573125,21.573125 0 0 1 21.57346,-21.57346 z m 15.8067,6.91823 a 21.573125,21.573125 0 0 1 2.52002,3.29867 l -14.01343,20.84672 -11.69635,10.75016 a 21.573125,21.573125 0 0 1 -5.788,-3.19014 l 18.34794,-16.62074 10.62982,-15.08467 z m 5.34912,10.53072 a 21.573125,21.573125 0 0 1 0.41765,4.12451 21.573125,21.573125 0 0 1 -18.65469,21.34694 l 8.29857,-10.56139 9.93847,-14.91006 z"
         style="fill:#000000;fill-opacity:1;stroke:#3b3b3b;stroke-width:20;stroke-linecap:round;stroke-linejoin:round;stroke-miterlimit:4;stroke-dasharray:none;stroke-opacity:1"
         inkscape:connector-curvature="0" />
      <path
         inkscape:connector-curvature="0"
         id="path4210"
         d="m 288.57819,669.36077 a 31.496762,31.496762 0 0 0 -31.49777,31.49541 31.496762,31.496762 0 0 0 31.49777,31.49778 31.496762,31.496762 0 0 0 31.49542,-31.49778 31.496762,31.496762 0 0 0 -31.49542,-31.49541 z m 0,9.49016 a 22.004587,22.004587 0 0 1 7.51284,1.35202 l -4.20237,12.02432 -23.55077,0 a 22.004587,22.004587 0 0 1 20.2403,-13.37634 z m 11.65388,3.3718 a 22.004587,22.004587 0 0 1 8.56048,10.00454 l -11.92287,0 3.36239,-10.00454 z m -33.30756,22.5173 20.59424,0 -1.9608,5.60866 -17.1304,-0.71494 a 22.004587,22.004587 0 0 1 -1.50304,-4.89372 z m 25.74045,0 17.5504,0 a 22.004587,22.004587 0 0 1 -21.63717,18.12142 22.004587,22.004587 0 0 1 -1.97023,-0.0991 l 6.057,-18.02231 z m -21.58054,9.43587 13.17814,0.91788 -2.25339,6.76249 a 22.004587,22.004587 0 0 1 -10.92475,-7.68037 z"
         style="fill:#000000;fill-opacity:1;stroke:#3b3b3b;stroke-width:20;stroke-linecap:round;stroke-linejoin:round;stroke-miterlimit:4;stroke-dasharray:none;stroke-opacity:1" />
      <path
         id="path4212"
         d="m 320.13108,732.82948 a 31.496762,31.496762 0 0 0 -31.49542,31.49778 31.496762,31.496762 0 0 0 31.49542,31.49541 31.496762,31.496762 0 0 0 31.49777,-31.49541 31.496762,31.496762 0 0 0 -31.49777,-31.49778 z m -5.25238,10.1532 -12.68264,34.04373 a 22.004587,22.004587 0 0 1 -4.06789,-12.69915 22.004587,22.004587 0 0 1 16.75053,-21.34458 z m 13.01534,0.781 a 22.004587,22.004587 0 0 1 14.24231,20.56358 22.004587,22.004587 0 0 1 -1.06889,6.74598 l -13.17342,-27.30956 z m -7.33115,10.63926 12.54106,27.66585 a 22.004587,22.004587 0 0 1 -12.97287,4.26373 22.004587,22.004587 0 0 1 -9.38161,-2.12833 l 9.81342,-29.80125 z"
         style="fill:#000000;fill-opacity:1;stroke:#3b3b3b;stroke-width:20;stroke-linecap:round;stroke-linejoin:round;stroke-miterlimit:4;stroke-dasharray:none;stroke-opacity:1"
         inkscape:connector-curvature="0" />
    </g>
    <path
       inkscape:connector-curvature="0"
       id="path4176"
       d="m 483.54267,481.06028 a 12.159655,11.088034 0 0 0 -12.15966,11.08803 12.159655,11.088034 0 0 0 0.34578,2.57276 l 0,111.433 a 12.159655,11.088034 0 0 0 -0.34578,2.57798 12.159655,11.088034 0 0 0 12.15966,11.08803 12.159655,11.088034 0 0 0 11.91265,-8.87043 l 0.24699,0 0,-2.2176 0,-115.6326 -0.0512,0 a 12.159655,11.088034 0 0 0 0.0512,-0.95114 12.159655,11.088034 0 0 0 -12.15964,-11.08803 z"
       style="fill:#3e3e3e;fill-opacity:1;stroke:none;stroke-width:0.76891226;stroke-linecap:round;stroke-linejoin:round;stroke-miterlimit:4;stroke-dasharray:none;stroke-opacity:1"
       inkscape:export-xdpi="90.222435"
       inkscape:export-ydpi="90.222435" />
    <path
       style="fill:#3e3e3e;fill-opacity:1;stroke:none;stroke-width:0.76891226;stroke-linecap:round;stroke-linejoin:round;stroke-miterlimit:4;stroke-dasharray:none;stroke-opacity:1"
       d="m 524.54609,481.06028 a 12.159655,11.088034 0 0 0 -12.15966,11.08803 12.159655,11.088034 0 0 0 0.34578,2.57276 l 0,111.433 a 12.159655,11.088034 0 0 0 -0.34578,2.57798 12.159655,11.088034 0 0 0 12.15966,11.08803 12.159655,11.088034 0 0 0 11.91265,-8.87043 l 0.24699,0 0,-2.2176 0,-115.6326 -0.0512,0 a 12.159655,11.088034 0 0 0 0.0512,-0.95114 12.159655,11.088034 0 0 0 -12.15964,-11.08803 z"
       id="path4178"
       inkscape:connector-curvature="0"
       inkscape:export-xdpi="90.222435"
       inkscape:export-ydpi="90.222435" />
    <ellipse
       ry="37.551708"
       rx="37.156429"
       cy="546.47803"
       cx="583.16302"
       id="ellipse4182"
       style="fill:#3b3b3b;fill-opacity:1;stroke:none;stroke-width:0.91614258;stroke-linecap:round;stroke-linejoin:round;stroke-miterlimit:4;stroke-dasharray:none;stroke-opacity:1"
       inkscape:export-xdpi="90.222435"
       inkscape:export-ydpi="90.222435" />
    <path
       style="fill:#663735;fill-opacity:1;stroke:none;stroke-width:0.64759547;stroke-linecap:round;stroke-linejoin:round;stroke-miterlimit:4;stroke-dasharray:none;stroke-opacity:1"
       d="m 483.7584,485.61585 a 9.1402194,10.463409 0 0 0 -9.14023,10.46343 9.1402194,10.463409 0 0 0 0.25993,2.42781 l 0,105.15563 a 9.1402194,10.463409 0 0 0 -0.25993,2.43275 9.1402194,10.463409 0 0 0 9.14023,10.46343 9.1402194,10.463409 0 0 0 8.95454,-8.37074 l 0.18568,0 0,-2.09269 0,-109.11864 -0.0387,0 a 9.1402194,10.463409 0 0 0 0.0387,-0.89755 9.1402194,10.463409 0 0 0 -9.14022,-10.46343 z"
       id="path4198"
       inkscape:connector-curvature="0"
       inkscape:export-xdpi="90.222435"
       inkscape:export-ydpi="90.222435" />
    <path
       inkscape:connector-curvature="0"
       id="path4200"
       d="m 524.31587,485.61585 a 9.1402194,10.463409 0 0 0 -9.14022,10.46343 9.1402194,10.463409 0 0 0 0.25993,2.42781 l 0,105.15563 a 9.1402194,10.463409 0 0 0 -0.25993,2.43275 9.1402194,10.463409 0 0 0 9.14022,10.46343 9.1402194,10.463409 0 0 0 8.95455,-8.37074 l 0.18567,0 0,-2.09269 0,-109.11864 -0.0387,0 a 9.1402194,10.463409 0 0 0 0.0387,-0.89755 9.1402194,10.463409 0 0 0 -9.14022,-10.46343 z"
       style="fill:#868749;fill-opacity:1;stroke:none;stroke-width:0.64759547;stroke-linecap:round;stroke-linejoin:round;stroke-miterlimit:4;stroke-dasharray:none;stroke-opacity:1"
       inkscape:export-xdpi="90.222435"
       inkscape:export-ydpi="90.222435" />
    <ellipse
       style="fill:#395a62;fill-opacity:1;stroke:none;stroke-width:0.8427673;stroke-linecap:round;stroke-linejoin:round;stroke-miterlimit:4;stroke-dasharray:none;stroke-opacity:1"
       id="ellipse4202"
       cx="583.16302"
       cy="546.47803"
       rx="34.180515"
       ry="34.544136"
       inkscape:export-xdpi="90.222435"
       inkscape:export-ydpi="90.222435" />
    <path
       id="path4207"
       d="m 223.84616,350.18606 a 31.103399,31.103399 0 0 0 -31.1044,31.10439 31.103399,31.103399 0 0 0 31.1044,31.1044 31.103399,31.103399 0 0 0 31.10441,-31.1044 31.103399,31.103399 0 0 0 -31.10441,-31.10439 z m 0,10.65318 a 20.45155,20.45155 0 0 1 13.47492,5.08892 l -10.9188,8.11804 -12.38677,-10.66483 a 20.45155,20.45155 0 0 1 9.83065,-2.54213 z m -18.00695,10.77201 15.87725,9.6792 -0.67572,20.23452 a 20.45155,20.45155 0 0 1 -17.64579,-20.23452 20.45155,20.45155 0 0 1 2.44426,-9.6792 z m 37.64497,4.00542 a 20.45155,20.45155 0 0 1 0.8132,5.67378 20.45155,20.45155 0 0 1 -12.86677,18.9856 l -1.61941,-18.13278 13.67298,-6.5266 z"
       style="fill:#b27742;fill-opacity:1;stroke:#603a19;stroke-width:1.19300711;stroke-linecap:round;stroke-linejoin:round;stroke-miterlimit:4;stroke-dasharray:none;stroke-opacity:1"
       inkscape:connector-curvature="0"
       inkscape:export-xdpi="90.222435"
       inkscape:export-ydpi="90.222435" />
    <path
       id="path4209"
       d="m 159.83399,350.18723 a 31.103399,31.103399 0 0 0 -31.10208,31.10206 31.103399,31.103399 0 0 0 31.10208,31.1044 31.103399,31.103399 0 0 0 31.10439,-31.1044 31.103399,31.103399 0 0 0 -31.10439,-31.10206 z m 0,11.07725 a 20.025475,20.025475 0 0 1 19.36539,14.96385 l -20.36267,3.44155 -5.21708,-17.39181 a 20.025475,20.025475 0 0 1 6.21436,-1.01359 z m -16.30598,8.42561 9.13162,13.09046 -8.02949,11.50832 a 20.025475,20.025475 0 0 1 -4.82096,-12.99958 20.025475,20.025475 0 0 1 3.71883,-11.5992 z m 16.1219,12.68968 19.47257,4.21747 a 20.025475,20.025475 0 0 1 -16.89782,14.55142 l -3.42523,-17.7553 1.03456,-0.39844 -0.18408,-0.61515 z m -3.22485,3.59767 -3.6699,14.02016 a 20.025475,20.025475 0 0 1 -4.08465,-2.09009 l 7.75455,-11.93007 z"
       style="fill:#2c9595;fill-opacity:1;stroke:#364646;stroke-width:1.19300711;stroke-linecap:round;stroke-linejoin:round;stroke-miterlimit:4;stroke-dasharray:none;stroke-opacity:1"
       inkscape:connector-curvature="0"
       inkscape:export-xdpi="90.222435"
       inkscape:export-ydpi="90.222435" />
    <path
       id="path4211"
       d="m 287.85828,350.18722 a 31.103399,31.103399 0 0 0 -31.10439,31.1044 31.103399,31.103399 0 0 0 31.10439,31.10206 31.103399,31.103399 0 0 0 31.10208,-31.10206 31.103399,31.103399 0 0 0 -31.10208,-31.1044 z m 0,9.80037 a 21.303698,21.303698 0 0 1 12.04192,3.7328 l -14.59802,18.42171 -15.08269,11.06094 a 21.303698,21.303698 0 0 1 -3.66524,-11.91142 21.303698,21.303698 0 0 1 21.30403,-21.30403 z m 15.60929,6.83183 a 21.303698,21.303698 0 0 1 2.48855,3.25747 l -13.83842,20.58636 -11.55027,10.6159 a 21.303698,21.303698 0 0 1 -5.71572,-3.15029 l 18.1188,-16.41316 10.49706,-14.89628 z m 5.28232,10.3992 a 21.303698,21.303698 0 0 1 0.41243,4.073 21.303698,21.303698 0 0 1 -18.42171,21.08034 l 8.19493,-10.4295 9.81435,-14.72384 z"
       style="fill:#803b98;fill-opacity:1;stroke:#422e48;stroke-width:1.19300711;stroke-linecap:round;stroke-linejoin:round;stroke-miterlimit:4;stroke-dasharray:none;stroke-opacity:1"
       inkscape:connector-curvature="0"
       inkscape:export-xdpi="90.222435"
       inkscape:export-ydpi="90.222435" />
    <path
       inkscape:connector-curvature="0"
       id="path4213"
       d="m 351.51212,350.18723 a 31.103399,31.103399 0 0 0 -31.10439,31.10206 31.103399,31.103399 0 0 0 31.10439,31.1044 31.103399,31.103399 0 0 0 31.10208,-31.1044 31.103399,31.103399 0 0 0 -31.10208,-31.10206 z m 0,9.37163 a 21.729771,21.729771 0 0 1 7.41902,1.33514 l -4.14989,11.87414 -23.25665,0 a 21.729771,21.729771 0 0 1 19.98752,-13.20928 z m 11.50834,3.32969 a 21.729771,21.729771 0 0 1 8.45357,9.87959 l -11.77396,0 3.32039,-9.87959 z m -32.89158,22.23608 20.33704,0 -1.93631,5.53862 -16.91646,-0.70601 a 21.729771,21.729771 0 0 1 -1.48427,-4.83261 z m 25.41897,0 17.33122,0 a 21.729771,21.729771 0 0 1 -21.36695,17.89511 21.729771,21.729771 0 0 1 -1.94562,-0.0978 l 5.98135,-17.79723 z m -21.31102,9.31803 13.01356,0.90641 -2.22524,6.67804 a 21.729771,21.729771 0 0 1 -10.78832,-7.58445 z"
       style="fill:#3d3db0;fill-opacity:1;stroke:#2a2a41;stroke-width:1.19300711;stroke-linecap:round;stroke-linejoin:round;stroke-miterlimit:4;stroke-dasharray:none;stroke-opacity:1"
       inkscape:export-xdpi="90.222435"
       inkscape:export-ydpi="90.222435" />
    <path
       id="path4215"
       d="m 415.52079,350.18722 a 31.103399,31.103399 0 0 0 -31.10206,31.1044 31.103399,31.103399 0 0 0 31.10206,31.10206 31.103399,31.103399 0 0 0 31.10441,-31.10206 31.103399,31.103399 0 0 0 -31.10441,-31.1044 z m -5.18678,10.02638 -12.52424,33.61856 a 21.729771,21.729771 0 0 1 -4.01708,-12.54054 21.729771,21.729771 0 0 1 16.54132,-21.07802 z m 12.8528,0.77126 a 21.729771,21.729771 0 0 1 14.06443,20.30676 21.729771,21.729771 0 0 1 -1.05554,6.66173 l -13.00889,-26.96849 z m -7.2396,10.50638 12.38444,27.32033 a 21.729771,21.729771 0 0 1 -12.81086,4.21048 21.729771,21.729771 0 0 1 -9.26444,-2.10174 l 9.69086,-29.42907 z"
       style="fill:#36a545;fill-opacity:1;stroke:#253d28;stroke-width:1.19300711;stroke-linecap:round;stroke-linejoin:round;stroke-miterlimit:4;stroke-dasharray:none;stroke-opacity:1"
       inkscape:connector-curvature="0"
       inkscape:export-xdpi="90.222435"
       inkscape:export-ydpi="90.222435" />
    <g
       id="g4194"
       transform="translate(63.214286,-171.78572)"
       inkscape:export-xdpi="90.222435"
       inkscape:export-ydpi="90.222435">
      <path
         inkscape:connector-curvature="0"
         style="fill:#435858;fill-opacity:1;stroke:none;stroke-width:1;stroke-linecap:round;stroke-linejoin:round;stroke-miterlimit:4;stroke-dasharray:none;stroke-opacity:1"
         d="m 160.38058,733.45368 a 31.496762,31.496762 0 0 0 -31.4961,31.49609 31.496762,31.496762 0 0 0 31.4961,31.49805 31.496762,31.496762 0 0 0 31.49804,-31.49805 31.496762,31.496762 0 0 0 -31.49804,-31.49609 z m 0,11.21875 a 20.278736,20.278736 0 0 1 19.61133,15.15234 l -20.6211,3.48438 -5.2832,-17.61133 a 20.278736,20.278736 0 0 1 6.29297,-1.02539 z m -16.51172,8.53125 8.6543,12.4082 0.59179,0.84766 -3.35156,4.80469 -4.7793,6.8496 a 20.278736,20.278736 0 0 1 -4.88086,-13.16406 20.278736,20.278736 0 0 1 3.76563,-11.74609 z m 16.32617,12.84961 19.71875,4.27148 a 20.278736,20.278736 0 0 1 -17.11133,14.73633 l -3.46875,-17.98047 1.04688,-0.4043 -0.18555,-0.62304 z m -3.26562,3.64453 -3.7168,14.19727 a 20.278736,20.278736 0 0 1 -4.13672,-2.11719 l 7.85352,-12.08008 z"
         id="path4181" />
      <path
         inkscape:connector-curvature="0"
         style="fill:#6f5844;fill-opacity:1;stroke:none;stroke-width:1;stroke-linecap:round;stroke-linejoin:round;stroke-miterlimit:4;stroke-dasharray:none;stroke-opacity:1"
         d="m 191.5789,669.81913 a 31.496762,31.496762 0 0 0 -31.49778,31.49777 31.496762,31.496762 0 0 0 31.49778,31.49778 31.496762,31.496762 0 0 0 31.49778,-31.49778 31.496762,31.496762 0 0 0 -31.49778,-31.49777 z m 0,10.78791 a 20.7102,20.7102 0 0 1 13.64534,5.15328 l -11.0569,8.22071 -12.54342,-10.7997 a 20.7102,20.7102 0 0 1 9.95498,-2.57429 z m -18.23468,10.90824 16.07804,9.80162 -0.68427,20.49042 a 20.7102,20.7102 0 0 1 -17.86896,-20.49042 20.7102,20.7102 0 0 1 2.47519,-9.80162 z m 38.12106,4.05609 a 20.7102,20.7102 0 0 1 0.82349,5.74553 20.7102,20.7102 0 0 1 -13.0295,19.22571 l -1.6399,-18.36211 13.84591,-6.60913 z"
         id="path4183" />
      <path
         inkscape:connector-curvature="0"
         style="fill:#563c5f;fill-opacity:1;stroke:none;stroke-width:1;stroke-linecap:round;stroke-linejoin:round;stroke-miterlimit:4;stroke-dasharray:none;stroke-opacity:1"
         d="m 239.60201,733.4288 a 31.496762,31.496762 0 0 0 -31.49777,31.49778 31.496762,31.496762 0 0 0 31.49777,31.49541 31.496762,31.496762 0 0 0 31.49542,-31.49541 31.496762,31.496762 0 0 0 -31.49542,-31.49778 z m 0,9.92432 a 21.573125,21.573125 0 0 1 12.19421,3.78001 l -14.78264,18.65469 -15.27344,11.20083 a 21.573125,21.573125 0 0 1 -3.71159,-12.06207 21.573125,21.573125 0 0 1 21.57346,-21.57346 z m 15.8067,6.91823 a 21.573125,21.573125 0 0 1 2.52002,3.29867 l -14.01343,20.84672 -11.69635,10.75016 a 21.573125,21.573125 0 0 1 -5.788,-3.19014 l 18.34794,-16.62074 10.62982,-15.08467 z m 5.34912,10.53072 a 21.573125,21.573125 0 0 1 0.41765,4.12451 21.573125,21.573125 0 0 1 -18.65469,21.34694 l 8.29857,-10.56139 9.93847,-14.91006 z"
         id="path4186" />
      <path
         style="fill:#3d3d5e;fill-opacity:1;stroke:none;stroke-width:1;stroke-linecap:round;stroke-linejoin:round;stroke-miterlimit:4;stroke-dasharray:none;stroke-opacity:1"
         d="m 288.57819,669.36077 a 31.496762,31.496762 0 0 0 -31.49777,31.49541 31.496762,31.496762 0 0 0 31.49777,31.49778 31.496762,31.496762 0 0 0 31.49542,-31.49778 31.496762,31.496762 0 0 0 -31.49542,-31.49541 z m 0,9.49016 a 22.004587,22.004587 0 0 1 7.51284,1.35202 l -4.20237,12.02432 -23.55077,0 a 22.004587,22.004587 0 0 1 20.2403,-13.37634 z m 11.65388,3.3718 a 22.004587,22.004587 0 0 1 8.56048,10.00454 l -11.92287,0 3.36239,-10.00454 z m -33.30756,22.5173 20.59424,0 -1.9608,5.60866 -17.1304,-0.71494 a 22.004587,22.004587 0 0 1 -1.50304,-4.89372 z m 25.74045,0 17.5504,0 a 22.004587,22.004587 0 0 1 -21.63717,18.12142 22.004587,22.004587 0 0 1 -1.97023,-0.0991 l 6.057,-18.02231 z m -21.58054,9.43587 13.17814,0.91788 -2.25339,6.76249 a 22.004587,22.004587 0 0 1 -10.92475,-7.68037 z"
         id="path4188"
         inkscape:connector-curvature="0" />
      <path
         inkscape:connector-curvature="0"
         style="fill:#3b6040;fill-opacity:1;stroke:none;stroke-width:1;stroke-linecap:round;stroke-linejoin:round;stroke-miterlimit:4;stroke-dasharray:none;stroke-opacity:1"
         d="m 320.13108,732.82948 a 31.496762,31.496762 0 0 0 -31.49542,31.49778 31.496762,31.496762 0 0 0 31.49542,31.49541 31.496762,31.496762 0 0 0 31.49777,-31.49541 31.496762,31.496762 0 0 0 -31.49777,-31.49778 z m -5.25238,10.1532 -12.68264,34.04373 a 22.004587,22.004587 0 0 1 -4.06789,-12.69915 22.004587,22.004587 0 0 1 16.75053,-21.34458 z m 13.01534,0.781 a 22.004587,22.004587 0 0 1 14.24231,20.56358 22.004587,22.004587 0 0 1 -1.06889,6.74598 l -13.17342,-27.30956 z m -7.33115,10.63926 12.54106,27.66585 a 22.004587,22.004587 0 0 1 -12.97287,4.26373 22.004587,22.004587 0 0 1 -9.38161,-2.12833 l 9.81342,-29.80125 z"
         id="path4190" />
    </g>
    <g
       id="g4253">
      <path
         inkscape:connector-curvature="0"
         style="fill:#435858;fill-opacity:1;stroke:#3b3b3b;stroke-width:20;stroke-linecap:round;stroke-linejoin:round;stroke-miterlimit:4;stroke-dasharray:none;stroke-opacity:1"
         d="m 157.1663,790.23939 a 31.496762,31.496762 0 0 0 -31.4961,31.49609 31.496762,31.496762 0 0 0 31.4961,31.49805 31.496762,31.496762 0 0 0 31.49804,-31.49805 31.496762,31.496762 0 0 0 -31.49804,-31.49609 z m 0,11.21875 a 20.278736,20.278736 0 0 1 19.61133,15.15234 l -20.6211,3.48438 -5.2832,-17.61133 a 20.278736,20.278736 0 0 1 6.29297,-1.02539 z m -16.51172,8.53125 8.6543,12.4082 0.59179,0.84766 -3.35156,4.80469 -4.7793,6.8496 a 20.278736,20.278736 0 0 1 -4.88086,-13.16406 20.278736,20.278736 0 0 1 3.76563,-11.74609 z m 16.32617,12.84961 19.71875,4.27148 a 20.278736,20.278736 0 0 1 -17.11133,14.73633 l -3.46875,-17.98047 1.04688,-0.4043 -0.18555,-0.62304 z m -3.26562,3.64453 -3.7168,14.19727 a 20.278736,20.278736 0 0 1 -4.13672,-2.11719 l 7.85352,-12.08008 z"
         id="path4243" />
      <path
         id="path4218"
         d="m 157.1663,790.23939 a 31.496762,31.496762 0 0 0 -31.4961,31.49609 31.496762,31.496762 0 0 0 31.4961,31.49805 31.496762,31.496762 0 0 0 31.49804,-31.49805 31.496762,31.496762 0 0 0 -31.49804,-31.49609 z m 0,11.21875 a 20.278736,20.278736 0 0 1 19.61133,15.15234 l -20.6211,3.48438 -5.2832,-17.61133 a 20.278736,20.278736 0 0 1 6.29297,-1.02539 z m -16.51172,8.53125 8.6543,12.4082 0.59179,0.84766 -3.35156,4.80469 -4.7793,6.8496 a 20.278736,20.278736 0 0 1 -4.88086,-13.16406 20.278736,20.278736 0 0 1 3.76563,-11.74609 z m 16.32617,12.84961 19.71875,4.27148 a 20.278736,20.278736 0 0 1 -17.11133,14.73633 l -3.46875,-17.98047 1.04688,-0.4043 -0.18555,-0.62304 z m -3.26562,3.64453 -3.7168,14.19727 a 20.278736,20.278736 0 0 1 -4.13672,-2.11719 l 7.85352,-12.08008 z"
         style="fill:#435858;fill-opacity:1;stroke:#3b3b3b;stroke-width:1;stroke-linecap:round;stroke-linejoin:round;stroke-miterlimit:4;stroke-dasharray:none;stroke-opacity:1"
         inkscape:connector-curvature="0" />
    </g>
    <g
       id="g4261"
       transform="translate(20.714283,2.8571429)">
      <path
         inkscape:connector-curvature="0"
         style="fill:#563c5f;fill-opacity:1;stroke:#3b3b3b;stroke-width:20;stroke-linecap:round;stroke-linejoin:round;stroke-miterlimit:4;stroke-dasharray:none;stroke-opacity:1"
         d="m 279.95916,790.21451 a 31.496762,31.496762 0 0 0 -31.49777,31.49778 31.496762,31.496762 0 0 0 31.49777,31.49541 31.496762,31.496762 0 0 0 31.49542,-31.49541 31.496762,31.496762 0 0 0 -31.49542,-31.49778 z m 0,9.92432 a 21.573125,21.573125 0 0 1 12.19421,3.78001 l -14.78264,18.65469 -15.27344,11.20083 a 21.573125,21.573125 0 0 1 -3.71159,-12.06207 21.573125,21.573125 0 0 1 21.57346,-21.57346 z m 15.8067,6.91823 a 21.573125,21.573125 0 0 1 2.52002,3.29867 l -14.01343,20.84672 -11.69635,10.75016 a 21.573125,21.573125 0 0 1 -5.788,-3.19014 l 18.34794,-16.62074 10.62982,-15.08467 z m 5.34912,10.53072 a 21.573125,21.573125 0 0 1 0.41765,4.12451 21.573125,21.573125 0 0 1 -18.65469,21.34694 l 8.29857,-10.56139 9.93847,-14.91006 z"
         id="path4247" />
      <path
         id="path4222"
         d="m 279.95916,790.21451 a 31.496762,31.496762 0 0 0 -31.49777,31.49778 31.496762,31.496762 0 0 0 31.49777,31.49541 31.496762,31.496762 0 0 0 31.49542,-31.49541 31.496762,31.496762 0 0 0 -31.49542,-31.49778 z m 0,9.92432 a 21.573125,21.573125 0 0 1 12.19421,3.78001 l -14.78264,18.65469 -15.27344,11.20083 a 21.573125,21.573125 0 0 1 -3.71159,-12.06207 21.573125,21.573125 0 0 1 21.57346,-21.57346 z m 15.8067,6.91823 a 21.573125,21.573125 0 0 1 2.52002,3.29867 l -14.01343,20.84672 -11.69635,10.75016 a 21.573125,21.573125 0 0 1 -5.788,-3.19014 l 18.34794,-16.62074 10.62982,-15.08467 z m 5.34912,10.53072 a 21.573125,21.573125 0 0 1 0.41765,4.12451 21.573125,21.573125 0 0 1 -18.65469,21.34694 l 8.29857,-10.56139 9.93847,-14.91006 z"
         style="fill:#563c5f;fill-opacity:1;stroke:#3b3b3b;stroke-width:1;stroke-linecap:round;stroke-linejoin:round;stroke-miterlimit:4;stroke-dasharray:none;stroke-opacity:1"
         inkscape:connector-curvature="0" />
    </g>
    <g
       id="g4265"
       transform="translate(32.85714,54.285714)">
      <path
         style="fill:#3d3d5e;fill-opacity:1;stroke:#3b3b3b;stroke-width:20;stroke-linecap:round;stroke-linejoin:round;stroke-miterlimit:4;stroke-dasharray:none;stroke-opacity:1"
         d="m 338.93534,761.86076 a 31.496762,31.496762 0 0 0 -31.49777,31.49541 31.496762,31.496762 0 0 0 31.49777,31.49778 31.496762,31.496762 0 0 0 31.49542,-31.49778 31.496762,31.496762 0 0 0 -31.49542,-31.49541 z m 0,9.49016 a 22.004587,22.004587 0 0 1 7.51284,1.35202 l -4.20237,12.02432 -23.55077,0 a 22.004587,22.004587 0 0 1 20.2403,-13.37634 z m 11.65388,3.3718 a 22.004587,22.004587 0 0 1 8.56048,10.00454 l -11.92287,0 3.36239,-10.00454 z m -33.30756,22.5173 20.59424,0 -1.9608,5.60866 -17.1304,-0.71494 a 22.004587,22.004587 0 0 1 -1.50304,-4.89372 z m 25.74045,0 17.5504,0 a 22.004587,22.004587 0 0 1 -21.63717,18.12142 22.004587,22.004587 0 0 1 -1.97023,-0.0991 l 6.057,-18.02231 z m -21.58054,9.43587 13.17814,0.91788 -2.25339,6.76249 a 22.004587,22.004587 0 0 1 -10.92475,-7.68037 z"
         id="path4249"
         inkscape:connector-curvature="0" />
      <path
         inkscape:connector-curvature="0"
         id="path4224"
         d="m 338.93534,761.86076 a 31.496762,31.496762 0 0 0 -31.49777,31.49541 31.496762,31.496762 0 0 0 31.49777,31.49778 31.496762,31.496762 0 0 0 31.49542,-31.49778 31.496762,31.496762 0 0 0 -31.49542,-31.49541 z m 0,9.49016 a 22.004587,22.004587 0 0 1 7.51284,1.35202 l -4.20237,12.02432 -23.55077,0 a 22.004587,22.004587 0 0 1 20.2403,-13.37634 z m 11.65388,3.3718 a 22.004587,22.004587 0 0 1 8.56048,10.00454 l -11.92287,0 3.36239,-10.00454 z m -33.30756,22.5173 20.59424,0 -1.9608,5.60866 -17.1304,-0.71494 a 22.004587,22.004587 0 0 1 -1.50304,-4.89372 z m 25.74045,0 17.5504,0 a 22.004587,22.004587 0 0 1 -21.63717,18.12142 22.004587,22.004587 0 0 1 -1.97023,-0.0991 l 6.057,-18.02231 z m -21.58054,9.43587 13.17814,0.91788 -2.25339,6.76249 a 22.004587,22.004587 0 0 1 -10.92475,-7.68037 z"
         style="fill:#3d3d5e;fill-opacity:1;stroke:#3b3b3b;stroke-width:1;stroke-linecap:round;stroke-linejoin:round;stroke-miterlimit:4;stroke-dasharray:none;stroke-opacity:1" />
    </g>
    <g
       id="g4269"
       transform="translate(152.85714,0)">
      <g
         id="g4273"
         transform="translate(-108.57143,7.1428571)">
        <path
           id="path4251"
           d="m 400.48823,788.9009 a 31.496762,31.496762 0 0 0 -31.49542,31.49778 31.496762,31.496762 0 0 0 31.49542,31.49541 31.496762,31.496762 0 0 0 31.49777,-31.49541 31.496762,31.496762 0 0 0 -31.49777,-31.49778 z m -5.25238,10.1532 -12.68264,34.04373 a 22.004587,22.004587 0 0 1 -4.06789,-12.69915 22.004587,22.004587 0 0 1 16.75053,-21.34458 z m 13.01534,0.781 a 22.004587,22.004587 0 0 1 14.24231,20.56358 22.004587,22.004587 0 0 1 -1.06889,6.74598 L 408.25119,799.8351 Z m -7.33115,10.63926 12.54106,27.66585 a 22.004587,22.004587 0 0 1 -12.97287,4.26373 22.004587,22.004587 0 0 1 -9.38161,-2.12833 l 9.81342,-29.80125 z"
           style="fill:#3b6040;fill-opacity:1;stroke:#3b3b3b;stroke-width:20;stroke-linecap:round;stroke-linejoin:round;stroke-miterlimit:4;stroke-dasharray:none;stroke-opacity:1"
           inkscape:connector-curvature="0" />
        <path
           inkscape:connector-curvature="0"
           style="fill:#3b6040;fill-opacity:1;stroke:#3b3b3b;stroke-width:1;stroke-linecap:round;stroke-linejoin:round;stroke-miterlimit:4;stroke-dasharray:none;stroke-opacity:1"
           d="m 400.48823,788.9009 a 31.496762,31.496762 0 0 0 -31.49542,31.49778 31.496762,31.496762 0 0 0 31.49542,31.49541 31.496762,31.496762 0 0 0 31.49777,-31.49541 31.496762,31.496762 0 0 0 -31.49777,-31.49778 z m -5.25238,10.1532 -12.68264,34.04373 a 22.004587,22.004587 0 0 1 -4.06789,-12.69915 22.004587,22.004587 0 0 1 16.75053,-21.34458 z m 13.01534,0.781 a 22.004587,22.004587 0 0 1 14.24231,20.56358 22.004587,22.004587 0 0 1 -1.06889,6.74598 L 408.25119,799.8351 Z m -7.33115,10.63926 12.54106,27.66585 a 22.004587,22.004587 0 0 1 -12.97287,4.26373 22.004587,22.004587 0 0 1 -9.38161,-2.12833 l 9.81342,-29.80125 z"
           id="path4226" />
      </g>
    </g>
  </g>
</svg>
