<?xml version="1.0" encoding="UTF-8" standalone="no"?>
<!-- Created with Inkscape (http://www.inkscape.org/) -->

<svg
   xmlns:dc="http://purl.org/dc/elements/1.1/"
   xmlns:cc="http://creativecommons.org/ns#"
   xmlns:rdf="http://www.w3.org/1999/02/22-rdf-syntax-ns#"
   xmlns:svg="http://www.w3.org/2000/svg"
   xmlns="http://www.w3.org/2000/svg"
   xmlns:sodipodi="http://sodipodi.sourceforge.net/DTD/sodipodi-0.dtd"
   xmlns:inkscape="http://www.inkscape.org/namespaces/inkscape"
   width="210mm"
   height="297mm"
   viewBox="0 0 744.09448819 1052.3622047"
   id="svg2"
   version="1.1"
   inkscape:version="0.91 r13725"
   sodipodi:docname="logo.svg"
   inkscape:export-filename="/Users/gtorok/github/arkona/assets/images/logo.png"
   inkscape:export-xdpi="74.984306"
   inkscape:export-ydpi="74.984306">
  <defs
     id="defs4">
    <filter
       style="color-interpolation-filters:sRGB;"
       inkscape:label="Chalk and Sponge"
       id="filter4197"
       inkscape:menu="Distort"
       inkscape:menu-tooltip="Low turbulence gives sponge look and high turbulence chalk"
       width="1.6"
       height="2"
       y="-0.5"
       x="-0.3">
      <feTurbulence
         type="fractalNoise"
         numOctaves="2"
         seed="52"
         baseFrequency="3.56447 3.006"
         result="turbulence"
         id="feTurbulence4199" />
      <feDisplacementMap
         in="SourceGraphic"
         in2="turbulence"
         scale="9.2"
         yChannelSelector="G"
         xChannelSelector="R"
         id="feDisplacementMap4201"
         result="fbSourceGraphic" />
      <feColorMatrix
         result="fbSourceGraphicAlpha"
         in="fbSourceGraphic"
         values="0 0 0 -1 0 0 0 0 -1 0 0 0 0 -1 0 0 0 0 1 0"
         id="feColorMatrix4221" />
      <feTurbulence
         id="feTurbulence4223"
         baseFrequency="0.4"
         type="fractalNoise"
         seed="0"
         numOctaves="5"
         result="result1"
         in="fbSourceGraphic" />
      <feDisplacementMap
         id="feDisplacementMap4225"
         in2="result1"
         xChannelSelector="R"
         yChannelSelector="G"
         scale="30"
         in="fbSourceGraphic" />
    </filter>
  </defs>
  <sodipodi:namedview
     id="base"
     pagecolor="#ffffff"
     bordercolor="#666666"
     borderopacity="1.0"
     inkscape:pageopacity="0.0"
     inkscape:pageshadow="2"
     inkscape:zoom="1.4"
     inkscape:cx="264.52646"
     inkscape:cy="522.5"
     inkscape:document-units="px"
     inkscape:current-layer="layer1"
     showgrid="false"
     inkscape:window-width="1916"
     inkscape:window-height="1155"
     inkscape:window-x="4"
     inkscape:window-y="1"
     inkscape:window-maximized="1" />
  <metadata
     id="metadata7">
    <rdf:RDF>
      <cc:Work
         rdf:about="">
        <dc:format>image/svg+xml</dc:format>
        <dc:type
           rdf:resource="http://purl.org/dc/dcmitype/StillImage" />
        <dc:title></dc:title>
      </cc:Work>
    </rdf:RDF>
  </metadata>
  <g
     inkscape:label="Layer 1"
     inkscape:groupmode="layer"
     id="layer1">
    <path
       style="fill:#4a396a;fill-opacity:1;stroke:#000000;stroke-width:15;stroke-linecap:round;stroke-linejoin:round;stroke-miterlimit:4;stroke-dasharray:none;stroke-opacity:0"
       d="M 235.71484 418.43359 L 235.70117 418.44727 A 9.2857141 9.2857141 0 0 0 226.78516 427.71875 A 9.2857141 9.2857141 0 0 0 226.91992 429.29688 L 226.91992 605.08594 L 227.16992 605.33594 A 9.2857141 9.2857141 0 0 0 236.42773 613.93359 A 9.2857141 9.2857141 0 0 0 237.32812 613.88086 L 360.08984 613.88086 L 360.26172 613.70703 A 9.2857141 9.2857141 0 0 0 361.42773 613.79102 A 9.2857141 9.2857141 0 0 0 370.71484 604.50586 A 9.2857141 9.2857141 0 0 0 370.53516 602.72852 L 370.53516 427.18359 L 370.32227 426.9707 A 9.2857141 9.2857141 0 0 0 361.82227 418.4707 L 361.78516 418.43359 L 235.71484 418.43359 z "
       id="path4140" />
    <path
       id="path4151"
       d="m 240.30787,424.10291 -0.0127,0.013 a 8.6091144,8.7980499 0 0 0 -8.26636,8.78456 8.6091144,8.7980499 0 0 0 0.12496,1.49526 l 0,166.55701 0.23178,0.23688 a 8.6091144,8.7980499 0 0 0 8.58324,8.14612 8.6091144,8.7980499 0 0 0 0.83478,-0.05 l 113.81673,0 0.15936,-0.16469 a 8.6091144,8.7980499 0 0 0 1.08105,0.0796 8.6091144,8.7980499 0 0 0 8.61042,-8.79752 8.6091144,8.7980499 0 0 0 -0.1666,-1.68401 l 0,-166.32572 -0.19738,-0.20171 a 8.6091144,8.7980499 0 0 0 -7.88066,-8.05359 l -0.0344,-0.0352 -116.88426,0 z"
       style="fill:#261e15;fill-opacity:1;stroke:#000000;stroke-width:14.05880356;stroke-linecap:round;stroke-linejoin:round;stroke-miterlimit:4;stroke-dasharray:none;stroke-opacity:0"
       inkscape:connector-curvature="0" />
    <path
       style="fill:#45351e;fill-opacity:1;stroke:none;stroke-width:1.20567814;stroke-linecap:round;stroke-linejoin:round;stroke-miterlimit:4;stroke-dasharray:none;stroke-opacity:1;filter:url(#filter4197)"
       d="m 299.64258,456.64704 a 30.357143,30.357143 0 0 0 -30.35742,30.35742 30.357143,30.357143 0 0 0 30.35742,30.35742 A 30.357143,30.357143 0 0 0 330,487.00446 30.357143,30.357143 0 0 0 299.64258,456.64704 Z m 0,5.72851 a 24.629381,24.629381 0 0 1 24.6289,24.62891 24.629381,24.629381 0 0 1 -24.6289,24.63086 24.629381,24.629381 0 0 1 -24.62891,-24.63086 24.629381,24.629381 0 0 1 24.62891,-24.62891 z"
       id="path4162"
       inkscape:connector-curvature="0"
       transform="matrix(1.6588175,0,0,1.6588175,-197.40978,-311.56135)" />
    <g
       transform="matrix(1.0636564,0,0,1.0636564,-14.978216,-37.505534)"
       id="g4285"
       style="stroke:#110e0a;stroke-opacity:1;stroke-width:1.88030646;stroke-miterlimit:4;stroke-dasharray:none">
      <text
         xml:space="preserve"
         style="font-style:normal;font-variant:normal;font-weight:normal;font-stretch:normal;font-size:52.08972931px;line-height:75%;font-family:Papyrus;-inkscape-font-specification:'Papyrus, Normal';text-align:start;letter-spacing:0px;word-spacing:0px;writing-mode:lr-tb;text-anchor:start;fill:#654a27;fill-opacity:1;stroke:#110e0a;stroke-width:1.88030646;stroke-linecap:butt;stroke-linejoin:miter;stroke-opacity:1;stroke-miterlimit:4;stroke-dasharray:none"
         x="239.49942"
         y="562.55762"
         id="text4287"
         sodipodi:linespacing="75%"
         inkscape:export-xdpi="74.984306"
         inkscape:export-ydpi="74.984306"><tspan
           sodipodi:role="line"
           id="tspan4289"
           x="239.49942"
           y="562.55762"><tspan
   style="font-style:normal;font-variant:normal;font-weight:normal;font-stretch:normal;font-size:40px;line-height:75%;font-family:Papyrus;-inkscape-font-specification:'Papyrus, Normal';text-align:start;writing-mode:lr-tb;text-anchor:start;stroke:#110e0a;stroke-opacity:1;stroke-width:1.88030646;stroke-miterlimit:4;stroke-dasharray:none"
   id="tspan4291">A</tspan>RK</tspan><tspan
           sodipodi:role="line"
           x="239.49942"
           y="601.62494"
           id="tspan4293">ON<tspan
   style="font-style:normal;font-variant:normal;font-weight:normal;font-stretch:normal;font-size:40px;line-height:75%;font-family:Papyrus;-inkscape-font-specification:'Papyrus, Normal';text-align:start;writing-mode:lr-tb;text-anchor:start;stroke:#110e0a;stroke-opacity:1;stroke-width:1.88030646;stroke-miterlimit:4;stroke-dasharray:none"
   id="tspan4295">A</tspan></tspan></text>
      <rect
         style="fill:#654a27;fill-opacity:1;stroke:#110e0a;stroke-width:1.88030646;stroke-linecap:round;stroke-linejoin:round;stroke-miterlimit:4;stroke-dasharray:none;stroke-opacity:1"
         id="rect4297"
         width="28.031733"
         height="2.7779195"
         x="239.91122"
         y="528.85065" />
      <rect
         y="567.48895"
         x="321.98611"
         height="3.0304577"
         width="28.031733"
         id="rect4299"
         style="fill:#654a27;fill-opacity:1;stroke:#110e0a;stroke-width:1.88030646;stroke-linecap:round;stroke-linejoin:round;stroke-miterlimit:4;stroke-dasharray:none;stroke-opacity:1" />
    </g>
    <g
       id="g4276"
       transform="matrix(1.0636564,0,0,1.0636564,-14.978216,-37.505534)">
      <text
         inkscape:export-ydpi="74.984306"
         inkscape:export-xdpi="74.984306"
         sodipodi:linespacing="75%"
         id="text4258"
         y="562.55762"
         x="239.49942"
         style="font-style:normal;font-variant:normal;font-weight:normal;font-stretch:normal;font-size:52.08972931px;line-height:75%;font-family:Papyrus;-inkscape-font-specification:'Papyrus, Normal';text-align:start;letter-spacing:0px;word-spacing:0px;writing-mode:lr-tb;text-anchor:start;fill:#654a27;fill-opacity:1;stroke:none;stroke-width:1px;stroke-linecap:butt;stroke-linejoin:miter;stroke-opacity:1"
         xml:space="preserve"><tspan
           y="562.55762"
           x="239.49942"
           id="tspan4260"
           sodipodi:role="line"><tspan
   id="tspan4268"
   style="font-style:normal;font-variant:normal;font-weight:normal;font-stretch:normal;font-size:40px;line-height:75%;font-family:Papyrus;-inkscape-font-specification:'Papyrus, Normal';text-align:start;writing-mode:lr-tb;text-anchor:start">A</tspan>RK</tspan><tspan
           id="tspan4262"
           y="601.62494"
           x="239.49942"
           sodipodi:role="line">ON<tspan
   id="tspan4270"
   style="font-style:normal;font-variant:normal;font-weight:normal;font-stretch:normal;font-size:40px;line-height:75%;font-family:Papyrus;-inkscape-font-specification:'Papyrus, Normal';text-align:start;writing-mode:lr-tb;text-anchor:start">A</tspan></tspan></text>
      <rect
         y="528.85065"
         x="239.91122"
         height="2.7779195"
         width="28.031733"
         id="rect4272"
         style="fill:#654a27;fill-opacity:1;stroke:none;stroke-width:4;stroke-linecap:round;stroke-linejoin:round;stroke-miterlimit:4;stroke-dasharray:none;stroke-opacity:1" />
      <rect
         style="fill:#654a27;fill-opacity:1;stroke:none;stroke-width:4;stroke-linecap:round;stroke-linejoin:round;stroke-miterlimit:4;stroke-dasharray:none;stroke-opacity:1"
         id="rect4274"
         width="28.031733"
         height="3.0304577"
         x="321.98611"
         y="567.48895" />
    </g>
    <path
       style="fill:#000000;fill-opacity:0;stroke:#17130d;stroke-width:1;stroke-linecap:round;stroke-linejoin:round;stroke-miterlimit:4;stroke-dasharray:none;stroke-opacity:1"
       d="m 235.57283,418.43332 -0.0137,0.0137 a 9.2857141,9.2857141 0 0 0 -8.91602,9.27149 9.2857141,9.2857141 0 0 0 0.13477,1.57812 l 0,175.78907 0.25,0.25 a 9.2857141,9.2857141 0 0 0 9.25781,8.59765 9.2857141,9.2857141 0 0 0 0.90039,-0.0527 l 122.76172,0 0.17187,-0.17383 a 9.2857141,9.2857141 0 0 0 1.16602,0.084 9.2857141,9.2857141 0 0 0 9.28711,-9.28515 9.2857141,9.2857141 0 0 0 -0.17969,-1.77735 l 0,-175.54492 -0.21289,-0.21289 a 9.2857141,9.2857141 0 0 0 -8.5,-8.5 l -0.0371,-0.0371 -126.07031,0 z m 4.5918,5.66992 116.88476,0 0.0352,0.0352 a 8.6091144,8.7980499 0 0 1 7.8789,8.05273 l 0.19727,0.20313 0,166.32422 a 8.6091144,8.7980499 0 0 1 0.16797,1.68555 8.6091144,8.7980499 0 0 1 -8.61133,8.79687 8.6091144,8.7980499 0 0 1 -1.08008,-0.0801 l -0.16015,0.16406 -113.81641,0 a 8.6091144,8.7980499 0 0 1 -0.83398,0.0508 8.6091144,8.7980499 0 0 1 -8.58399,-8.14649 l -0.23242,-0.23633 0,-166.55664 a 8.6091144,8.7980499 0 0 1 -0.125,-1.49609 8.6091144,8.7980499 0 0 1 8.26758,-8.78516 l 0.0117,-0.0117 z"
       id="path4303"
       inkscape:connector-curvature="0" />
  </g>
</svg>
