<?xml version="1.0" encoding="UTF-8" standalone="no"?>
<!-- Created with Inkscape (http://www.inkscape.org/) -->

<svg
   xmlns:dc="http://purl.org/dc/elements/1.1/"
   xmlns:cc="http://creativecommons.org/ns#"
   xmlns:rdf="http://www.w3.org/1999/02/22-rdf-syntax-ns#"
   xmlns:svg="http://www.w3.org/2000/svg"
   xmlns="http://www.w3.org/2000/svg"
   xmlns:sodipodi="http://sodipodi.sourceforge.net/DTD/sodipodi-0.dtd"
   xmlns:inkscape="http://www.inkscape.org/namespaces/inkscape"
   width="210mm"
   height="297mm"
   viewBox="0 0 744.09448819 1052.3622047"
   id="svg8067"
   version="1.1"
   inkscape:version="0.91 r13725"
   sodipodi:docname="logo.svg">
  <defs
     id="defs8069">
    <filter
       style="color-interpolation-filters:sRGB;"
       inkscape:menu-tooltip="Basic noise fill texture; adjust color in Flood"
       inkscape:menu="Overlays"
       inkscape:label="Light Eraser Cracked"
       id="filter10210">
      <feColorMatrix
         result="result6"
         values="1 0 0 0 0 0 1 0 0 0 0 0 1 0 0 0 0 0 1 1 "
         id="feColorMatrix10212" />
      <feTurbulence
         result="result0"
         seed="0"
         baseFrequency="1"
         numOctaves="5"
         type="fractalNoise"
         id="feTurbulence10214" />
      <feConvolveMatrix
         result="result5"
         order="5 5"
         kernelMatrix="-2 0 0 0 -2 0 -2 0 -2 0 0 0 -10 0 0 0 -2 0 -2 0 -2 0 0 0 -2 "
         targetX="2"
         targetY="2"
         id="feConvolveMatrix10216" />
      <feColorMatrix
         in="result5"
         type="saturate"
         values="0"
         result="result4"
         id="feColorMatrix10218" />
      <feComposite
         in2="result6"
         result="result2"
         k3="0.5"
         k2="0.5"
         k1="1.5"
         operator="arithmetic"
         in="result4"
         id="feComposite10220" />
      <feBlend
         result="result7"
         mode="normal"
         in2="result4"
         id="feBlend10222" />
      <feComposite
         in2="SourceGraphic"
         result="fbSourceGraphic"
         operator="in"
         in="result7"
         id="feComposite10224" />
      <feColorMatrix
         result="fbSourceGraphicAlpha"
         in="fbSourceGraphic"
         values="0 0 0 -1 0 0 0 0 -1 0 0 0 0 -1 0 0 0 0 1 0"
         id="feColorMatrix10314" />
      <feColorMatrix
         id="feColorMatrix10316"
         result="fbSourceGraphic"
         type="luminanceToAlpha"
         in="fbSourceGraphic" />
      <feColorMatrix
         id="feColorMatrix10318"
         result="result6"
         values="1 0 0 0 0 0 1 0 0 0 0 0 1 0 0 0 0 0 1 0 " />
      <feComposite
         id="feComposite10320"
         in2="result6"
         result="result2"
         operator="out"
         in="fbSourceGraphic"
         k2="0"
         k1="1"
         k3="0" />
      <feTurbulence
         id="feTurbulence10322"
         type="fractalNoise"
         baseFrequency="0.04"
         numOctaves="5" />
      <feColorMatrix
         id="feColorMatrix10324"
         values="1 0 0 0 0 0 1 0 0 0 0 0 1 0 0 -1.5 0 0 4.5 -1 "
         result="result0" />
      <feComposite
         id="feComposite10326"
         in2="result0"
         in="result0"
         result="result4"
         operator="out" />
      <feColorMatrix
         id="feColorMatrix10328"
         values="1 0 0 0 0 0 1 0 0 0 0 0 1 0 0 0 0 0 5 -1 "
         result="result7" />
      <feComposite
         id="feComposite10330"
         in2="result2"
         operator="arithmetic"
         result="result5"
         k1="1.5"
         k3="1" />
      <feComposite
         id="feComposite10332"
         in2="fbSourceGraphic"
         operator="in"
         in="result5"
         result="result8" />
    </filter>
    <filter
       inkscape:menu-tooltip="Adds a turbulent transparency which displaces pixels at the same time"
       inkscape:menu="Overlays"
       inkscape:label="Color Shift"
       style="color-interpolation-filters:sRGB;"
       id="filter10616">
      <feTurbulence
         result="result3"
         baseFrequency="0.3"
         type="fractalNoise"
         seed="0"
         numOctaves="3"
         id="feTurbulence10618" />
      <feGaussianBlur
         stdDeviation="1.5"
         result="result91"
         id="feGaussianBlur10620" />
      <feDisplacementMap
         result="fbSourceGraphic"
         in="SourceGraphic"
         xChannelSelector="R"
         yChannelSelector="G"
         scale="30"
         in2="result91"
         id="feDisplacementMap10622" />
      <feColorMatrix
         type="luminanceToAlpha"
         in="fbSourceGraphic"
         result="result0"
         id="feColorMatrix10624" />
      <feColorMatrix
         result="result2"
         values="1 0 0 0 0 0 1 0 0 0 0 0 1 0 0 0 0 0 1 0 "
         id="feColorMatrix10626" />
      <feComposite
         in2="result2"
         operator="over"
         in="result3"
         result="result4"
         id="feComposite10628" />
      <feGaussianBlur
         stdDeviation="2"
         result="result5"
         id="feGaussianBlur10630" />
      <feDisplacementMap
         scale="100"
         xChannelSelector="R"
         in="result5"
         in2="result3"
         yChannelSelector="G"
         id="feDisplacementMap10632" />
      <feColorMatrix
         values="1 0 0 0 0 0 1 0 0 0 0 0 1 0 0 0 0 0 6.5 -4.5 "
         result="result92"
         id="feColorMatrix10634" />
      <feComposite
         in="fbSourceGraphic"
         operator="out"
         in2="result92"
         id="feComposite10636"
         result="fbSourceGraphic" />
      <feColorMatrix
         result="fbSourceGraphicAlpha"
         in="fbSourceGraphic"
         values="0 0 0 -1 0 0 0 0 -1 0 0 0 0 -1 0 0 0 0 1 0"
         id="feColorMatrix10668" />
      <feColorMatrix
         id="feColorMatrix10670"
         type="hueRotate"
         values="287"
         result="color1"
         in="fbSourceGraphic" />
      <feColorMatrix
         id="feColorMatrix10672"
         type="saturate"
         values="0.9"
         result="color2" />
    </filter>
  </defs>
  <sodipodi:namedview
     id="base"
     pagecolor="#ffffff"
     bordercolor="#666666"
     borderopacity="1.0"
     inkscape:pageopacity="0.0"
     inkscape:pageshadow="2"
     inkscape:zoom="1.4"
     inkscape:cx="372.75923"
     inkscape:cy="253.89404"
     inkscape:document-units="px"
     inkscape:current-layer="layer1"
     showgrid="false"
     inkscape:window-width="1436"
     inkscape:window-height="855"
     inkscape:window-x="4"
     inkscape:window-y="1"
     inkscape:window-maximized="1" />
  <metadata
     id="metadata8072">
    <rdf:RDF>
      <cc:Work
         rdf:about="">
        <dc:format>image/svg+xml</dc:format>
        <dc:type
           rdf:resource="http://purl.org/dc/dcmitype/StillImage" />
        <dc:title></dc:title>
      </cc:Work>
    </rdf:RDF>
  </metadata>
  <g
     inkscape:label="Layer 1"
     inkscape:groupmode="layer"
     id="layer1">
    <path
       id="path8653"
       d="M 404.5 294.10938 C 387.05391 296.31596 375.68608 301.33544 366.98633 313.59375 L 356.86914 313.86523 L 333.7207 338.97656 L 338.09961 311.35352 L 322.45703 311.35352 L 315.20312 368.55859 C 299.94866 354.90828 285.37305 345.94727 285.37305 345.94727 C 285.37305 345.94727 315.40496 346.44929 314.7793 328.87109 C 314.15363 311.29289 286.625 308.7832 286.625 308.7832 L 267.85547 309.2832 L 259.0957 394.66406 L 277.24023 394.66406 L 279.74219 364.5293 C 279.74219 364.5293 298.70113 372.93328 312.51953 389.72852 L 311.82227 395.22656 L 316.71094 395.36719 C 320.16366 400.5176 323.0357 406.30289 324.79102 412.74414 C 333.55033 444.88713 312.9043 480.54688 312.9043 480.54688 C 312.9043 480.54688 302.89315 476.52822 306.02148 467.99023 C 309.1498 459.45226 314.7793 452.42188 314.7793 452.42188 C 314.7793 452.42188 282.8703 464.97732 289.12695 484.56445 C 295.3836 504.15158 314.1543 528.25781 314.1543 528.25781 C 314.1543 528.25781 362.95492 514.69846 370.46289 495.11133 C 377.97088 475.5242 356.07422 456.43945 356.07422 456.43945 C 356.07422 456.43945 362.95587 470.50081 356.69922 476.02539 C 350.44256 481.54997 331.67187 481.55078 331.67188 481.55078 C 331.67188 481.55078 358.57642 446.39439 347.31445 411.74023 C 344.15984 402.03318 337.91082 392.60301 330.55078 384.05469 L 333.09375 359.56836 L 354.36719 395.72852 L 356.93945 395.72852 C 363.64651 404.06993 375.15604 409.07636 392.97656 408.79688 C 416.86262 408.42225 429.92696 400.36648 438.15234 387.80273 L 436.94531 396.18359 L 454.20117 396.18359 L 463.36719 329.86914 L 488.71289 394.17383 L 503.8125 394.17383 L 514.05859 309.77344 L 497.88086 310.27539 L 493.02734 363.5293 L 474.15234 313.79297 L 448.80859 313.79297 L 448.66406 314.80273 C 440.77555 302.04645 424.71885 294.94386 404.5 294.10938 z M 266.04102 303.74805 C 266.04102 303.74805 163.43189 382.0976 152.16992 396.16016 C 140.90794 410.22272 127.76953 443.87109 127.76953 443.87109 C 127.76953 443.87109 122.76372 439.34993 120.88672 431.81641 C 119.00973 424.28291 129.02148 412.73242 129.02148 412.73242 C 129.02148 412.73242 112.12725 422.27529 98.988281 446.88477 C 85.849314 471.49424 93.357422 500.12305 93.357422 500.12305 C 93.357422 500.12305 147.16457 473.5023 154.04688 458.9375 C 160.92919 444.37272 151.54297 425.79102 151.54297 425.79102 C 151.54297 425.79102 152.17063 431.31415 149.66797 438.84766 C 147.16531 446.38118 134.65234 445.87891 134.65234 445.87891 C 134.65234 445.87891 145.28788 414.74058 168.4375 400.17578 C 191.5871 385.61099 222.87109 391.13672 222.87109 391.13672 L 237.88672 399.67578 L 235.38281 416.75 L 253.52734 417.25391 L 266.04102 303.74805 z M 516.08398 307.92773 L 504.03711 421.46484 L 522.01758 420.9707 L 523.21875 406.31445 L 539.84375 399.98242 C 539.84375 399.98242 571.84402 398.86804 591.51953 416.41797 C 611.19503 433.96792 614.98633 466.11328 614.98633 466.11328 C 614.98633 466.11328 602.55255 464.87642 601.70508 457.10938 C 600.85759 449.34235 602.66016 443.98633 602.66016 443.98633 C 602.66016 443.98633 589.42639 460.99195 593.07812 476.29102 C 596.72983 491.59009 644.01367 525.25586 644.01367 525.25586 C 644.01367 525.25586 657.55814 498.09623 649.90039 472.03711 C 642.24264 445.97799 627.65039 434.24023 627.65039 434.24023 C 627.65039 434.24023 635.03303 447.00303 631.56641 454.16406 C 628.09979 461.32509 622.19727 465.08789 622.19727 465.08789 C 622.19727 465.08789 616.47992 430.12324 608.40625 414.71289 C 600.3326 399.30253 516.08398 307.92773 516.08398 307.92773 z M 281.53516 319.82617 C 283.94739 319.84677 293.6629 320.39646 294.75781 327.86719 C 296.00914 336.40518 279.11719 336.9082 279.11719 336.9082 L 280.99414 319.83008 C 280.99414 319.83008 281.19056 319.82317 281.53516 319.82617 z M 404.5 323.30273 C 440.84117 322.60765 428.9082 353.19141 428.9082 353.19141 C 427.75205 370.20716 418.68268 385.85742 396.52344 385.85742 C 374.3642 385.85742 371.70558 362.22517 377.91016 346.93359 C 384.11475 331.64202 391.20446 325.38794 404.5 323.30273 z M 356.88086 334.03125 C 355.89323 336.75931 354.92842 339.65993 353.97852 342.76367 C 352.23264 348.46818 350.92687 354.0931 350.14258 359.51562 L 343.73047 348.51953 L 356.88086 334.03125 z M 244.76953 336.89453 L 236.63672 378.07812 C 236.63672 378.07812 231.62857 374.56418 217.23828 375.06641 C 202.84798 375.56864 197.21875 376.07031 197.21875 376.07031 L 244.76953 336.89453 z M 529.91992 343.52148 L 568.3457 388.68945 C 568.3457 388.68945 562.90885 387.4175 548.8418 384.93164 C 534.77475 382.44577 529.08789 385.21484 529.08789 385.21484 L 529.91992 343.52148 z "
       style="fill:#dc6755;fill-opacity:1;stroke:#000000;stroke-width:15;stroke-linecap:round;stroke-linejoin:round;stroke-miterlimit:4;stroke-dasharray:none;stroke-opacity:1" />
    <path
       style="fill:#dc6755;fill-opacity:1;stroke:none;stroke-width:0.5;stroke-linecap:round;stroke-linejoin:round;stroke-miterlimit:4;stroke-dasharray:none;stroke-opacity:1"
       d="M 404.5 294.10938 C 387.05391 296.31596 375.68608 301.33544 366.98633 313.59375 L 356.86914 313.86523 L 333.7207 338.97656 L 338.09961 311.35352 L 322.45703 311.35352 L 315.20312 368.55859 C 299.94866 354.90828 285.37305 345.94727 285.37305 345.94727 C 285.37305 345.94727 315.40496 346.44929 314.7793 328.87109 C 314.15363 311.29289 286.625 308.7832 286.625 308.7832 L 267.85547 309.2832 L 259.0957 394.66406 L 277.24023 394.66406 L 279.74219 364.5293 C 279.74219 364.5293 298.70113 372.93328 312.51953 389.72852 L 311.82227 395.22656 L 316.71094 395.36719 C 320.16366 400.5176 323.0357 406.30289 324.79102 412.74414 C 333.55033 444.88713 312.9043 480.54688 312.9043 480.54688 C 312.9043 480.54688 302.89315 476.52822 306.02148 467.99023 C 309.1498 459.45226 314.7793 452.42188 314.7793 452.42188 C 314.7793 452.42188 282.8703 464.97732 289.12695 484.56445 C 295.3836 504.15158 314.1543 528.25781 314.1543 528.25781 C 314.1543 528.25781 362.95492 514.69846 370.46289 495.11133 C 377.97088 475.5242 356.07422 456.43945 356.07422 456.43945 C 356.07422 456.43945 362.95587 470.50081 356.69922 476.02539 C 350.44256 481.54997 331.67187 481.55078 331.67188 481.55078 C 331.67188 481.55078 358.57642 446.39439 347.31445 411.74023 C 344.15984 402.03318 337.91082 392.60301 330.55078 384.05469 L 333.09375 359.56836 L 354.36719 395.72852 L 356.93945 395.72852 C 363.64651 404.06993 375.15604 409.07636 392.97656 408.79688 C 416.86262 408.42225 429.92696 400.36648 438.15234 387.80273 L 436.94531 396.18359 L 454.20117 396.18359 L 463.36719 329.86914 L 488.71289 394.17383 L 503.8125 394.17383 L 514.05859 309.77344 L 497.88086 310.27539 L 493.02734 363.5293 L 474.15234 313.79297 L 448.80859 313.79297 L 448.66406 314.80273 C 440.77555 302.04645 424.71885 294.94386 404.5 294.10938 z M 266.04102 303.74805 C 266.04102 303.74805 163.43189 382.0976 152.16992 396.16016 C 140.90794 410.22272 127.76953 443.87109 127.76953 443.87109 C 127.76953 443.87109 122.76372 439.34993 120.88672 431.81641 C 119.00973 424.28291 129.02148 412.73242 129.02148 412.73242 C 129.02148 412.73242 112.12725 422.27529 98.988281 446.88477 C 85.849314 471.49424 93.357422 500.12305 93.357422 500.12305 C 93.357422 500.12305 147.16457 473.5023 154.04688 458.9375 C 160.92919 444.37272 151.54297 425.79102 151.54297 425.79102 C 151.54297 425.79102 152.17063 431.31415 149.66797 438.84766 C 147.16531 446.38118 134.65234 445.87891 134.65234 445.87891 C 134.65234 445.87891 145.28788 414.74058 168.4375 400.17578 C 191.5871 385.61099 222.87109 391.13672 222.87109 391.13672 L 237.88672 399.67578 L 235.38281 416.75 L 253.52734 417.25391 L 266.04102 303.74805 z M 516.08398 307.92773 L 504.03711 421.46484 L 522.01758 420.9707 L 523.21875 406.31445 L 539.84375 399.98242 C 539.84375 399.98242 571.84402 398.86804 591.51953 416.41797 C 611.19503 433.96792 614.98633 466.11328 614.98633 466.11328 C 614.98633 466.11328 602.55255 464.87642 601.70508 457.10938 C 600.85759 449.34235 602.66016 443.98633 602.66016 443.98633 C 602.66016 443.98633 589.42639 460.99195 593.07812 476.29102 C 596.72983 491.59009 644.01367 525.25586 644.01367 525.25586 C 644.01367 525.25586 657.55814 498.09623 649.90039 472.03711 C 642.24264 445.97799 627.65039 434.24023 627.65039 434.24023 C 627.65039 434.24023 635.03303 447.00303 631.56641 454.16406 C 628.09979 461.32509 622.19727 465.08789 622.19727 465.08789 C 622.19727 465.08789 616.47992 430.12324 608.40625 414.71289 C 600.3326 399.30253 516.08398 307.92773 516.08398 307.92773 z M 281.53516 319.82617 C 283.94739 319.84677 293.6629 320.39646 294.75781 327.86719 C 296.00914 336.40518 279.11719 336.9082 279.11719 336.9082 L 280.99414 319.83008 C 280.99414 319.83008 281.19056 319.82317 281.53516 319.82617 z M 404.5 323.30273 C 440.84117 322.60765 428.9082 353.19141 428.9082 353.19141 C 427.75205 370.20716 418.68268 385.85742 396.52344 385.85742 C 374.3642 385.85742 371.70558 362.22517 377.91016 346.93359 C 384.11475 331.64202 391.20446 325.38794 404.5 323.30273 z M 356.88086 334.03125 C 355.89323 336.75931 354.92842 339.65993 353.97852 342.76367 C 352.23264 348.46818 350.92687 354.0931 350.14258 359.51562 L 343.73047 348.51953 L 356.88086 334.03125 z M 244.76953 336.89453 L 236.63672 378.07812 C 236.63672 378.07812 231.62857 374.56418 217.23828 375.06641 C 202.84798 375.56864 197.21875 376.07031 197.21875 376.07031 L 244.76953 336.89453 z M 529.91992 343.52148 L 568.3457 388.68945 C 568.3457 388.68945 562.90885 387.4175 548.8418 384.93164 C 534.77475 382.44577 529.08789 385.21484 529.08789 385.21484 L 529.91992 343.52148 z "
       id="path8615" />
    <path
       id="path10340"
       d="m 404.5,689.82367 c -17.44609,2.20658 -28.81392,7.22606 -37.51367,19.48437 l -10.11719,0.27148 -23.14844,25.11133 4.37891,-27.62304 -15.64258,0 -7.25391,57.20507 c -15.25446,-13.65031 -29.83007,-22.61132 -29.83007,-22.61132 0,0 30.03191,0.50202 29.40625,-17.07618 -0.62567,-17.5782 -28.1543,-20.08789 -28.1543,-20.08789 l -18.76953,0.5 -8.75977,85.38086 18.14453,0 2.50196,-30.13476 c 0,0 18.95894,8.40398 32.77734,25.19922 l -0.69726,5.49804 4.88867,0.14063 c 3.45272,5.15041 6.32476,10.9357 8.08008,17.37695 8.75931,32.14299 -11.88672,67.80274 -11.88672,67.80274 0,0 -10.01115,-4.01866 -6.88282,-12.55665 3.12832,-8.53797 8.75782,-15.56835 8.75782,-15.56835 0,0 -31.909,12.55544 -25.65235,32.14257 6.25665,19.58713 25.02735,43.69336 25.02735,43.69336 0,0 48.80062,-13.55935 56.30859,-33.14648 7.50799,-19.58713 -14.38867,-38.67188 -14.38867,-38.67188 0,0 6.88165,14.06136 0.625,19.58594 -6.25666,5.52458 -25.02735,5.52539 -25.02734,5.52539 0,0 26.90454,-35.15639 15.64257,-69.81055 -3.15461,-9.70705 -9.40363,-19.13722 -16.76367,-27.68554 l 2.54297,-24.48633 21.27344,36.16016 2.57226,0 c 6.70706,8.34141 18.21659,13.34784 36.03711,13.06836 23.88606,-0.37463 36.9504,-8.4304 45.17578,-20.99415 l -1.20703,8.38086 17.25586,0 9.16602,-66.31445 25.3457,64.30469 15.09961,0 10.24609,-84.40039 -16.17773,0.50195 -4.85352,53.25391 -18.875,-49.73633 -25.34375,0 -0.14453,1.00976 C 440.77555,697.76074 424.71885,690.65815 404.5,689.82367 Z m -138.45898,9.63867 c 0,0 -102.60913,78.34955 -113.8711,92.41211 -11.26198,14.06256 -24.40039,47.71093 -24.40039,47.71093 0,0 -5.00581,-4.52116 -6.88281,-12.05468 -1.87699,-7.5335 8.13476,-19.08399 8.13476,-19.08399 0,0 -16.89423,9.54287 -30.033199,34.15235 -13.138967,24.60947 -5.630859,53.23828 -5.630859,53.23828 0,0 53.807148,-26.62075 60.689458,-41.18555 6.88231,-14.56478 -2.50391,-33.14648 -2.50391,-33.14648 0,0 0.62766,5.52313 -1.875,13.05664 -2.50266,7.53352 -15.01563,7.03125 -15.01563,7.03125 0,0 10.63554,-31.13833 33.78516,-45.70313 23.1496,-14.56479 54.43359,-9.03906 54.43359,-9.03906 l 15.01563,8.53906 -2.50391,17.07422 18.14453,0.50391 12.51368,-113.50586 z m 250.04296,4.17968 -12.04687,113.53711 17.98047,-0.49414 1.20117,-14.65625 16.625,-6.33203 c 0,0 32.00027,-1.11438 51.67578,16.43555 19.6755,17.54995 23.4668,49.69531 23.4668,49.69531 0,0 -12.43378,-1.23686 -13.28125,-9.0039 -0.84749,-7.76703 0.95508,-13.12305 0.95508,-13.12305 0,0 -13.23377,17.00562 -9.58204,32.30469 3.65171,15.29907 50.93555,48.96484 50.93555,48.96484 0,0 13.54447,-27.15963 5.88672,-53.21875 -7.65775,-26.05912 -22.25,-37.79688 -22.25,-37.79688 0,0 7.38264,12.7628 3.91602,19.92383 -3.46662,7.16103 -9.36914,10.92383 -9.36914,10.92383 0,0 -5.71735,-34.96465 -13.79102,-50.375 -8.07365,-15.41036 -92.32227,-106.78516 -92.32227,-106.78516 z m -234.54882,11.89844 c 2.41223,0.0206 12.12774,0.57029 13.22265,8.04102 1.25133,8.53799 -15.64062,9.04101 -15.64062,9.04101 l 1.87695,-17.07812 c 0,0 0.19642,-0.007 0.54102,-0.004 z M 404.5,719.01702 c 36.34117,-0.69508 24.4082,29.88868 24.4082,29.88868 -1.15615,17.01575 -10.22552,32.66601 -32.38476,32.66601 -22.15924,0 -24.81786,-23.63225 -18.61328,-38.92383 6.20459,-15.29157 13.2943,-21.54565 26.58984,-23.63086 z m -47.61914,10.72852 c -0.98763,2.72806 -1.95244,5.62868 -2.90234,8.73242 -1.74588,5.70451 -3.05165,11.32943 -3.83594,16.75195 l -6.41211,-10.99609 13.15039,-14.48828 z m -112.11133,2.86328 -8.13281,41.18359 c 0,0 -5.00815,-3.51394 -19.39844,-3.01171 -14.3903,0.50223 -20.01953,1.0039 -20.01953,1.0039 l 47.55078,-39.17578 z m 285.15039,6.62695 38.42578,45.16797 c 0,0 -5.43685,-1.27195 -19.5039,-3.75781 -14.06705,-2.48587 -19.75391,0.2832 -19.75391,0.2832 l 0.83203,-41.69336 z"
       style="fill:#dc6755;fill-opacity:1;stroke:#000000;stroke-width:5;stroke-linecap:round;stroke-linejoin:round;stroke-miterlimit:4;stroke-dasharray:none;stroke-opacity:1;filter:url(#filter10616)"
       inkscape:connector-curvature="0" />
  </g>
</svg>
